<svg xmlns="http://www.w3.org/2000/svg" xmlns:xlink="http://www.w3.org/1999/xlink" viewBox="0 0 596 596"
              width="596" height="596" preserveAspectRatio="xMidYMid meet"
              style="width: auto; height: 200px; transform: translate3d(0px, 0px, 0px); content-visibility: visible;">
              <defs>
                <clipPath id="__lottie_element_2">
                  <rect width="596" height="596" x="0" y="0"></rect>
                </clipPath>
              </defs>
              <g clip-path="url(#__lottie_element_2)">
                <g transform="matrix(1,0,0,1,47.803009033203125,31.884994506835938)" opacity="1"
                  style="display: block;">
                  <g opacity="1"
                    transform="matrix(1.044022798538208,0,0,1.044022798538208,246.17999267578125,257.9070129394531)">
                    <path fill="rgb(198,233,242)" fill-opacity="1"
                      d=" M226.1179962158203,0.9340000152587891 C225.6009979248047,125.81600189208984 123.9469985961914,226.63400268554688 -0.9350000023841858,226.11900329589844 C-125.81700134277344,225.60299682617188 -226.63499450683594,123.947998046875 -226.11900329589844,-0.9340000152587891 C-225.60400390625,-125.81600189208984 -123.9489974975586,-226.63400268554688 0.9330000281333923,-226.1179962158203 C125.81500244140625,-225.60299682617188 226.63400268554688,-123.947998046875 226.1179962158203,0.9340000152587891z">
                    </path>
                  </g>
                  <g opacity="1" transform="matrix(1,0,0,1,0,-3.0436553955078125)">
                    <g opacity="1" transform="matrix(1,0,0,1,0,0)">
                      <g opacity="1" transform="matrix(1,0,0,1,250.5050048828125,323.6000061035156)">
                        <path fill="rgb(104,96,93)" fill-opacity="1"
                          d=" M-141.28799438476562,-82.5979995727539 C-141.28799438476562,-82.5979995727539 193.9010009765625,-75.80999755859375 193.9010009765625,-75.80999755859375 C227.67799377441406,-75.1259994506836 248.92599487304688,-50.34299850463867 235.875,-26.85099983215332 C235.875,-26.85099983215332 188.60899353027344,58.222999572753906 188.60899353027344,58.222999572753906 C180.29600524902344,73.18399810791016 160.12399291992188,83.04199981689453 138.6060028076172,82.65699768066406 C138.6060028076172,82.65699768066406 -194.16700744628906,76.70899963378906 -194.16700744628906,76.70899963378906 C-227.55999755859375,76.11199951171875 -248.927001953125,51.90999984741211 -236.71499633789062,28.516000747680664 C-236.71499633789062,28.516000747680664 -191.86500549316406,-57.39899826049805 -191.86500549316406,-57.39899826049805 C-183.8260040283203,-72.79900360107422 -163.26499938964844,-83.04299926757812 -141.28799438476562,-82.5979995727539z">
                        </path>
                      </g>
                      <g opacity="1" transform="matrix(1,0,0,1,250.04299926757812,311.7279968261719)">
                        <path fill="rgb(202,197,189)" fill-opacity="1"
                          d=" M-140.7259979248047,-72.55999755859375 C-140.7259979248047,-72.55999755859375 194.92100524902344,-69.63300323486328 194.92100524902344,-69.63300323486328 C228.7449951171875,-69.33799743652344 249.79299926757812,-47.37300109863281 236.50100708007812,-26.240999221801758 C236.50100708007812,-26.240999221801758 188.36099243164062,50.28900146484375 188.36099243164062,50.28900146484375 C179.89700317382812,63.74700164794922 159.60000610351562,72.75199890136719 138.05299377441406,72.60900115966797 C138.05299377441406,72.60900115966797 -195.17999267578125,70.41200256347656 -195.17999267578125,70.41200256347656 C-228.61900329589844,70.19100189208984 -249.79299926757812,48.74599838256836 -237.3419952392578,27.709999084472656 C-237.3419952392578,27.709999084472656 -191.61700439453125,-49.54899978637695 -191.61700439453125,-49.54899978637695 C-183.42100524902344,-63.39699935913086 -162.73300170898438,-72.75199890136719 -140.7259979248047,-72.55999755859375z">
                        </path>
                      </g>
                    </g>
                    <g opacity="1"
                      transform="matrix(1.0596423149108887,0,0,1.0596423149108887,257.2149963378906,311.1080017089844)">
                      <path fill="rgb(244,244,242)" fill-opacity="1"
                        d=" M75.35600280761719,0.0010000000474974513 C75.35600280761719,17.260000228881836 41.61899948120117,31.250999450683594 0.0010000000474974513,31.250999450683594 C-41.61800003051758,31.250999450683594 -75.35600280761719,17.260000228881836 -75.35600280761719,0.0010000000474974513 C-75.35600280761719,-17.259000778198242 -41.61800003051758,-31.250999450683594 0.0010000000474974513,-31.250999450683594 C41.61899948120117,-31.250999450683594 75.35600280761719,-17.259000778198242 75.35600280761719,0.0010000000474974513z">
                      </path>
                    </g>
                    <g opacity="1" transform="matrix(1,0,0,1,0,0)">
                      <g opacity="1" transform="matrix(1,0,0,1,247.9089813232422,158.0360107421875)">
                        <path fill="rgb(9,36,66)" fill-opacity="1"
                          d=" M93.12699890136719,-26.136999130249023 C93.12699890136719,-26.136999130249023 93.12699890136719,-26.136999130249023 93.12699890136719,-26.136999130249023 C96.70800018310547,-36.38199996948242 98.66300201416016,-47.39400100708008 98.66300201416016,-58.86600112915039 C98.66300201416016,-113.49800109863281 54.4900016784668,-157.78500366210938 0,-157.78500366210938 C-54.4900016784668,-157.78500366210938 -98.66300201416016,-113.49800109863281 -98.66300201416016,-58.86600112915039 C-98.66300201416016,-44.27000045776367 -95.50499725341797,-30.413999557495117 -89.84400177001953,-17.94300079345703 C-89.84400177001953,-17.94300079345703 -90.4260025024414,-17.916000366210938 -90.4260025024414,-17.916000366210938 C-90.4260025024414,-17.916000366210938 0.8519999980926514,151.0330047607422 0.8519999980926514,151.0330047607422 C4.5,157.78500366210938 14.913000106811523,157.3509979248047 17.909000396728516,150.3209991455078 C17.909000396728516,150.3209991455078 87.86499786376953,-13.793999671936035 87.86499786376953,-13.793999671936035 C87.9280014038086,-13.940999984741211 87.99500274658203,-14.083999633789062 88.06700134277344,-14.22700023651123 C90.00299835205078,-18.05900001525879 91.69300079345703,-22.038000106811523 93.12699890136719,-26.136999130249023z">
                        </path>
                      </g>
                      <g opacity="1"
                        transform="matrix(0.9853084087371826,0,0,0.9853084087371826,247.90899658203125,97.8239974975586)">
                        <path fill="rgb(254,254,254)" fill-opacity="1"
                          d=" M69.90399932861328,0 C69.90399932861328,38.54999923706055 38.60599899291992,69.8010025024414 0,69.8010025024414 C-38.606998443603516,69.8010025024414 -69.90399932861328,38.54999923706055 -69.90399932861328,0 C-69.90399932861328,-38.54999923706055 -38.606998443603516,-69.8010025024414 0,-69.8010025024414 C38.60599899291992,-69.8010025024414 69.90399932861328,-38.54999923706055 69.90399932861328,0z">
                        </path>
                      </g>
                      <g opacity="1" transform="matrix(1,0,0,1,247.90899658203125,97.8239974975586)">
                        <path fill="rgb(9,36,66)" fill-opacity="1"
                          d=" M35.486000061035156,0 C35.486000061035156,19.597999572753906 19.597999572753906,35.48500061035156 0.0010000000474974513,35.48500061035156 C-19.597000122070312,35.48500061035156 -35.48500061035156,19.597999572753906 -35.48500061035156,0 C-35.48500061035156,-19.597999572753906 -19.597000122070312,-35.48500061035156 0.0010000000474974513,-35.48500061035156 C19.597999572753906,-35.48500061035156 35.486000061035156,-19.597999572753906 35.486000061035156,0z">
                        </path>
                      </g>
                    </g>
                  </g>
                </g>
              </g>
            </svg>