<svg xmlns="http://www.w3.org/2000/svg" enable-background="new 0 0 600 600" viewBox="0 0 600 600"
              width="auto" height="200px">
              <polyline fill="#ffc8bb" points="109.519 384.055 91.491 401.72 134.904 408.719 129.268 389.99"
                class="colorffc8bb svgShape"></polyline>
              <path fill="#6864f4" d="M69.7474518,411.9460449c2.9924545-8.5033264,10.6296463-14.4835205,19.5932846-15.4398499
					c22.7180786-2.4237976,44.1993179,1.1502686,64.6134109,9.9007568
					c9.7576141,4.1825867,16.5811157,13.215271,18.0491638,23.7295532l9.8913422,70.8426514
					c-3.5775146,34.0249329-141.9380188,19.4792786-138.3605194-14.5456238L69.7474518,411.9460449z"
                class="color6864f4 svgShape"></path>
              <path fill="#5551ef" d="M181.8951263,500.9807129c-0.5955353,5.6149292-4.8534546,9.9017334-11.54216,12.9973145
					c-5.3493805-52.726532-54.0912628-91.0763245-107.4359894-82.6419373l6.8260269-19.3934937
					c2.9977112-8.495575,10.6343155-14.4815979,19.5983582-15.4385986
					c22.7138367-2.4217224,44.1970291,1.1522522,64.6159897,9.9017944
					c9.7550659,4.1795044,16.5806122,13.2121887,18.0453796,23.7291565L181.8951263,500.9807129z"
                class="color5551ef svgShape"></path>
              <path fill="#0a0a19" d="M143.6770477,458.4101868c-12.3203125-12.5195313-27.8178711-21.2514648-44.8178711-25.2509766
					c-0.2685547-0.0634766-0.4350586-0.3325195-0.3720703-0.6015625c0.0629883-0.2685547,0.3330078-0.4350586,0.6015625-0.3720703
					c17.1831055,4.0429688,32.8481445,12.8686523,45.3012695,25.5234375
					c0.1938477,0.1967773,0.190918,0.5131836-0.0058594,0.7070313
					C144.1898804,458.6073303,143.8734589,458.6095276,143.6770477,458.4101868z" class="color0a0a19 svgShape"></path>
              <path fill="#0a0a19" d="M181.399704,501.0483704l-9.8916016-70.8427734
					c-1.440918-10.3203125-8.2421875-19.2631836-17.7504883-23.3393555
					c-20.7373047-8.8881836-42.394043-12.2045898-64.3637695-9.862793
					c-8.746582,0.9331055-16.2729492,6.8632813-19.1748047,15.1083984l-26.2133789,74.487793
					c-0.0913086,0.2607422-0.3754883,0.3969727-0.6376953,0.3056641c-0.2602539-0.0917969-0.3974609-0.3769531-0.3056641-0.6376953
					l26.2133789-74.487793c3.0292969-8.6069336,10.8842773-14.796875,20.0117188-15.7705078
					c22.1420898-2.3623047,43.9672852,0.9804688,64.8637695,9.9379883
					c9.828125,4.2128906,16.8583984,13.4550781,18.347168,24.1196289l9.8916016,70.8427734
					c0.0380859,0.2734375-0.1523438,0.5263672-0.4257813,0.5644531
					C181.6980743,501.51297,181.4383698,501.32724,181.399704,501.0483704z" class="color0a0a19 svgShape"></path>
              <path fill="#d3def7" d="M543.5061035,424.1933594l-46.8433228,8.5834961l-18.5045471,3.3787537
					c-221.835968,40.6321411,45.0715027-8.2467041-322.4528809,59.0494385
					c-1.6298828-12.4620667-31.0893707-237.6387939-36.2481232-277.0647888
					c138.1654053-23.9196472,209.1588135-36.2078705,358.231842-62.0278473
					C514.4551392,305.8638306,467.9130554,116.2517014,543.5061035,424.1933594z" class="colord3def7 svgShape"></path>
              <path fill="#ffffff" d="M543.5061035,413.8175354l-46.8433228,8.5834656l-18.5045471,3.3787537l-136.6334839,25.0279236
					l-9.6673584,1.7674866l-135.3928375,24.7935181c0.6242676-0.1168823-8.4549103,1.541748-40.7592163,7.4605408
					c-1.6298828-12.4620667-31.0893707-237.6388245-36.2481232-277.0648193
					c13.3640289-2.3137512,257.0752869-44.5083008,274.5648804-47.536438l9.6964417-1.6796265l73.97052-12.8117828
					l26.3171082,107.1718292C508.5814514,271.5465393,537.4567261,389.1747437,543.5061035,413.8175354z"
                class="colorfff svgShape"></path>
              <polygon fill="#e6ebfd"
                points="244.136 249.111 127.372 268.289 126.098 258.534 232.82 240.997 224.373 189.593 234.082 187.917"
                class="colore6ebfd svgShape"></polygon>
              <path fill="#e6ebfd" d="M508.5597839,332.3977661l-21.8401489,29.4839172l9.9388123,60.5167236l-18.5004883,3.3855896
					l-149.8171387-68.4930115l-2.1117249,0.3440857l15.2984924,93.1682434l-9.6748657,1.7674561l-15.3328857-93.3403015
					l-73.8068237,12.1307068l-50.0040894,83.1835632l3.7528381,22.8270874l-9.6862946,1.7674561l-4.3726959-26.568512
					l26.947403-44.8166809l-69.4456787-43.6689758l-1.6526489-12.6703491l76.1710205,47.9038391l22.1960144-36.9320374
					l78.3056488-12.8653564l-28.0231323-171.3616333l9.7208252-1.5954132l17.5219116,107.528244l39.7209167-6.5304871
					l-10.7536926-65.4514923l57.8771362-9.5027618l-6.9664001-42.3834686l9.6978455-1.675827l8.5731506,52.1734161
					l-57.8656921,9.5139618l10.742218,65.4517822l-49.4302063,8.1141357l8.8944702,54.1241455l5.0726929-0.8377991
					l74.8282471,34.2007141c-4.3312073-23.322113-13.7772522-85.7843628-17.272522-109.2124329l116.741272-19.1663361
					l2.3527222,9.5831757l-107.9270935,17.7314758c5.7727661,38.4355469,14.6213379,95.2108459,17.1347351,106.113739
					l70.4900208,32.2267456l-9.7207642-59.197052l26.6948853-36.0367737l17.5593872-2.8806763l2.3527222,9.5831604
					L508.5597839,332.3977661z" class="colore6ebfd svgShape"></path>
              <ellipse cx="206.462" cy="381.377" fill="#e6ebfd" rx="10.103" ry="2.038" class="colore6ebfd svgShape">
              </ellipse>
              <ellipse cx="348.936" cy="305.87" fill="#e6ebfd" rx="18.844" ry="2.317" class="colore6ebfd svgShape">
              </ellipse>
              <path fill="#0a0a19" d="M155.212204,484.8965149l-36.2548828-277.0708008
					c-0.0351563-0.2661133,0.1459961-0.5117188,0.4101563-0.5576172l358.234375-62.0205078
					c0.2568359-0.0429688,0.5078125,0.1181641,0.5708008,0.3735352l65.8193665,268.0737305
					c0.0692139,0.2788391-0.1121826,0.5587769-0.3950195,0.6108398l-387.7988281,71.0175781
					C155.5217438,485.37677,155.2492218,485.1823425,155.212204,484.8965149z M120.0110321,208.1714172l36.1240234,276.0737305
					l386.7592773-70.8271484l-65.5815735-267.1054688L120.0110321,208.1714172z" class="color0a0a19 svgShape"></path>
              <path fill="#2f2f3f" d="M467.1831665,123.5704193c0,0,22.8327637-14.0666046,35.4601135,4.4422455
					c1.14505,1.6783752,1.8690491,3.6146851,2.1471252,5.6273346l38.7108765,280.1712036L467.1831665,123.5704193z"
                class="color2f2f3f svgShape"></path>
              <path fill="#0a0a19" d="M543.0178833,413.9380188l-76.3179016-290.2407227
					c-0.0561523-0.2128906,0.0336914-0.4370117,0.2211914-0.5527344
					c0.2319336-0.1430664,23.3867188-14.0996094,36.1352539,4.5864258c0.1557617,0.2280273,0.0966797,0.5390549-0.1313477,0.6948166
					c-0.2265625,0.1552734-0.5390625,0.0976563-0.6948242-0.1313477
					c-11.4121094-16.7270432-31.6845703-6.0610275-34.4667969-4.4833908l76.2212219,289.8730469
					c0.0703125,0.2670898-0.0893555,0.5405273-0.3564453,0.6103516
					C543.3620605,414.3648376,543.0883179,414.2058411,543.0178833,413.9380188z" class="color0a0a19 svgShape"></path>
              <path fill="#2f2f3f" d="M115.0133743,174.9539642c-18.0627975-6.0509186-33.3421936,2.8601074-40.6927414,19.6599274
					l81.3854828,290.2235107L115.0133743,174.9539642z" class="color2f2f3f svgShape"></path>
              <path fill="#0a0a19" d="M127.5955048,274.6094055l-13.0371094-99.2792969
					c-16.878418-5.5083008-32.1010742,1.9350586-39.7797852,19.4838867c-0.1103516,0.2529297-0.40625,0.3696289-0.6582031,0.2578125
					c-0.253418-0.1108398-0.3686523-0.4052734-0.2578125-0.6582031
					c7.8286133-17.8935547,24.0444336-25.7167969,41.3095703-19.9335938
					c0.1811523,0.0605469,0.3120117,0.2197266,0.3369141,0.4091797l13.0776367,99.590332
					c0.0361328,0.2734375-0.1567383,0.5249023-0.4306641,0.5605469
					C127.8851318,275.0762024,127.6313782,274.8857117,127.5955048,274.6094055z" class="color0a0a19 svgShape"></path>
              <path fill="#ffc8bb" d="M129.2677155,389.9897461c16.5723877-40.179718-2.0972214-48.8463745-2.0972214-48.8463745
						s25.8685074-44.4263306,16.7444992-56.3045654c-0.8377686-1.0905151-1.9624786-1.8363953-3.3167877-2.2723694
						c-6.4728241-2.1347961-18.1561127,2.7657776-28.841011,11.2124939
						c-11.3963776,9.0093384-21.6679916,22.0470276-23.2288818,34.8894043
						c-3.351181,27.3948059,20.9909744,55.3866882,20.9909744,55.3866882" class="colorffc8bb svgShape"></path>
              <path fill="#fca495" d="M114.7210541,385.6159363l-5.2048721-1.562439c0,0-24.3345184-27.9867249-20.9849243-55.3875427
						c1.5620346-12.8411255,11.825386-25.8774719,23.2211685-34.890625
						c9.2377319-7.2945557,19.217865-11.942749,25.9361267-11.6888428
						c-25.6138,6.6793213-44.5093384,29.9690552-44.5093384,57.6725769
						C93.1792145,358.2053528,101.5577316,374.6985779,114.7210541,385.6159363z" class="colorfca495 svgShape"></path>
              <path fill="#0a0a19" d="M129.0774384,390.452179c-0.2553711-0.1054688-0.3769531-0.3979492-0.2719727-0.652832
						c16.2026367-39.2827148-1.6630859-48.1176758-1.8452148-48.2021484
						c-0.2685242-0.1244812-0.3688889-0.4522705-0.2216797-0.7050781
						c0.2568359-0.4414063,25.5961914-44.2709961,16.7797852-55.7485352
						c-0.168457-0.2192383-0.1269531-0.5332031,0.0917969-0.7011719c0.2202148-0.168457,0.5332031-0.1259766,0.7011719,0.0917969
						c8.8310547,11.4970703-13.597168,51.440918-16.4492188,56.4121094
						c2.9375,1.7099609,17.1293945,12.2333984,1.8681641,49.2338867
						C129.6248932,390.4361877,129.3325806,390.5566406,129.0774384,390.452179z" class="color0a0a19 svgShape"></path>
              <path fill="#fca495" d="M140.5982056,282.5664368c-0.9525146,4.6018982-4.4758759,9.204071-9.7552185,12.0275574
						c-6.9777908,3.7529297-14.7934418,3.2362366-19.0857925-0.8150635
						C122.4420929,285.3322144,134.1253815,280.4316406,140.5982056,282.5664368z" class="colorfca495 svgShape"></path>
              <path fill="#ffc8bb"
                d="M476.5856628,407.1113281l-67.4486694,36.5879517c0,0-17.7315369,6.8285828-31.5495605-11.2472534
					c-5.7153931-7.4828491-13.8983154-12.6818237-22.987854-15.1035461c-3.2020569-0.8492432-6.7024231-1.6640625-10.375-2.3527832
					c-2.8805847-0.5508423-5.8760681-1.0097961-8.9058838-1.3311768c-4.6366272-0.4934387-7.0352173-2.8692017-7.471344-5.9219055
					c-1.3887024-9.5257263,16.239502-25.7536926,44.3804626-12.6473694c0,0-21.1860657-41.4882507-24.4224243-65.4058533
					c-0.9296265-6.8630371-0.3787537-12.2800293,2.5707703-14.8622742c1.0673218-0.9296875,2.2264709-1.3544617,3.4888916-1.3544617
					c12.3719482-0.0229797,32.5479736,41.1326599,33.1792603,42.4179077c-0.1607056-0.6654358,0-10.1862183,6.0448303-13.0144043
					c6.6915283-3.1307678,16.4725037,3.6724854,16.4725037,3.6724854s6.4384155-17.2840271,20.6236267-3.6724854
					c0,0,4.8890991-8.7224426,15.1148376-0.5853271C455.537384,350.4279175,479.8565674,380.3016052,476.5856628,407.1113281z"
                class="colorffc8bb svgShape"></path>
              <path fill="#fca495" d="M476.5857239,407.1089172l-67.4472961,36.5897522c0,0-15.6436768,6.0250549-28.9829407-8.2221985
					c38.2206726-4.384491,67.8869019-36.8339233,67.8869019-76.2262573c0-5.5173035-0.5859985-10.9076538-1.6988831-16.0928955
					C457.094635,352.3755493,479.7498474,381.1728516,476.5857239,407.1089172z" class="colorfca495 svgShape"></path>
              <path fill="#fa5743" d="M411.3490906,437.2315674c17.0730286-15.8044128,35.5906982-26.6583862,55.8686829-31.4787292
					c10.6829834-2.5394897,21.9139404,0.8370972,29.6893616,8.5906982l50.6557922,50.5137634
					c21.7668457,36.0396118-97.3214111,107.9647827-119.0883179,71.9251709l-23.743103-74.2008972
					C401.846283,453.5648193,404.4017029,443.6627502,411.3490906,437.2315674z" class="colorfa5743 svgShape"></path>
              <path fill="#f72c16" d="M431.4126587,489.7117615c0,21.6491699,7.7729797,41.4723206,20.6821289,56.8523865
					c-10.5947266,0.4589233-19.1587219-2.3924561-23.6216736-9.784668l-23.7389832-74.1950989
					c-2.8904419-9.0230103-0.3318481-18.9247437,6.6109924-25.3501892
					c17.0793457-15.8096924,35.5939331-26.6586914,55.8760376-31.4826355
					c6.6891785-1.5917053,13.583374-0.8593445,19.7156372,1.8065186
					C454.389679,420.6335449,431.4126587,452.4872437,431.4126587,489.7117615z" class="colorf72c16 svgShape"></path>
              <path fill="#0a0a19" d="M435.318634,463.6230774c-0.2636719-0.0830078-0.409668-0.3632813-0.3271484-0.6269531
					c5.5449219-17.6450195,16.2983398-32.9199219,31.0986328-44.1733398
					c0.2197266-0.1669922,0.5341797-0.1245117,0.7006836,0.0952148c0.1669922,0.2197266,0.1245117,0.5336914-0.0952148,0.7006836
					c-14.6347656,11.1274414-25.2675781,26.230957-30.75,43.6772461
					C435.8617249,463.561554,435.5796509,463.7049561,435.318634,463.6230774z" class="color0a0a19 svgShape"></path>
              <path fill="#0a0a19" d="M427.997345,536.9317017l-23.7392578-74.1948547
					c-2.9458008-9.1958008-0.296875-19.3500977,6.7475586-25.8696289
					c17.6142578-16.3046875,36.4887695-26.9375,56.0996094-31.6020508
					c10.6640625-2.534668,22.2177734,0.8085938,30.1547852,8.7255859l50.6513977,50.5146484
					c0.1958008,0.1948242,0.1958008,0.5117188,0.0009766,0.7070313c-0.1953125,0.1962891-0.5117188,0.1953125-0.7070313,0.0009766
					l-50.6513977-50.5146484c-7.6933594-7.6733398-18.8891602-10.9150391-29.2172852-8.4609375
					c-19.4414063,4.6245117-38.1655273,15.1767578-55.6513672,31.3632813
					c-6.7612305,6.2568359-9.3027344,16.003418-6.4750977,24.8310547l23.7392578,74.1948547
					c0.0844727,0.2626953-0.0605469,0.5444336-0.3237305,0.628418
					C428.3601074,537.3397217,428.0808716,537.1929932,427.997345,536.9317017z" class="color0a0a19 svgShape"></path>
              <path fill="#fca495"
                d="M347.8053894 329.6893921c-.9296265-6.8630371-.3787537-12.2800293 2.5707703-14.8622742 1.0673218-.9296875 2.2264709-1.3544617 3.4888916-1.3544617C358.1923218 319.3876953 355.1211548 327.9970703 347.8053894 329.6893921zM344.2360535 414.5137634c0 .1608276 0 .3213806-.0114746.4819336-2.8805847-.5508423-5.8760681-1.0097961-8.9058838-1.3311768-4.6366272-.4934387-7.0352173-2.8692017-7.471344-5.9219055 1.7330017-1.7444763 4.1430664-2.8232422 6.7941895-2.8232422C339.9437866 404.9193726 344.2360535 409.2116699 344.2360535 414.5137634z"
                class="colorfca495 svgShape"></path>
              <path fill="#39c0c1" d="M352.6736145,112.0733109c-21.231842-0.9071121-41.4277344,6.7322311-56.7688599,21.4262009
						s-23.756012,34.5019226-23.756012,55.7321625c0,29.5175323,16.3766174,55.9281158,42.6572266,69.0670319
						c16.3122253,8.1577148,27.9636536,24.5995178,31.3297729,44.4042969
						c0.1940002,1.6182861,1.488678,2.8509216,3.1069641,2.8509216c0.0647888,0,0.0647888,0,0.1295776,0
						c1.5534668,0,2.9129639-1.0999146,3.1717224-2.6549683l0.1296082-0.7774963
						c3.2365112-18.837616,15.4059143-35.146698,33.4656067-44.9226685
						c24.7271118-13.3348846,40.2622375-39.0975342,40.5213928-67.1895905v-0.7111511
						C426.660614,148.3230743,393.5829773,113.7547913,352.6736145,112.0733109z M349.4370728,219.5899353
						c-15.9886475,0-28.9347839-12.9461212-28.9347839-28.9328003c0-15.86026,12.9461365-28.8695984,28.9347839-28.8695984
						c15.9234619,0,28.9343872,13.0093384,28.9343872,28.8695984
						C378.37146,206.6438141,365.3605347,219.5899353,349.4370728,219.5899353z" class="color39c0c1 svgShape"></path>
              <path fill="#0a0a19" d="M349.4372864,220.0898743c-16.2304688,0-29.4350586-13.2036133-29.4350586-29.4326172
						c0-16.1943359,13.2045898-29.3696289,29.4350586-29.3696289c16.2299805,0,29.434082,13.175293,29.434082,29.3696289
						C378.8713684,206.886261,365.6672668,220.0898743,349.4372864,220.0898743z M349.4372864,162.2876282
						c-15.6791992,0-28.4350586,12.7265625-28.4350586,28.3696289c0,15.6777344,12.7558594,28.4326172,28.4350586,28.4326172
						c15.6787109,0,28.434082-12.7548828,28.434082-28.4326172
						C377.8713684,175.0141907,365.1159973,162.2876282,349.4372864,162.2876282z M274.9631653,168.879425
						c-0.0444336,0-0.0893555-0.0058594-0.1342773-0.0180664c-0.2661133-0.0737305-0.421875-0.3496094-0.3481445-0.6157227
						c3.6870117-13.2905273,10.9755859-25.4306641,21.078125-35.1074219
						c15.472168-14.81884,35.762207-22.4706955,57.1362305-21.5644455c0.2758789,0.0117188,0.4897461,0.2451172,0.4780273,0.5209961
						c-0.0112305,0.2758789-0.2451172,0.4990234-0.5209961,0.4780273
						c-21.1074219-0.90625-41.128418,6.6586914-56.4018555,21.2880783
						c-9.9726563,9.5517578-17.1669922,21.534668-20.8056641,34.6523438
						C275.3830872,168.7344055,275.1819153,168.879425,274.9631653,168.879425z M383.0202942,120.3183975
						c-0.0742188,0-0.1494141-0.0166016-0.2202148-0.0512695c-2.2460938-1.105957-4.5717773-2.1108398-6.9116211-2.9873047
						c-0.2587891-0.0966797-0.3896484-0.3852539-0.2929688-0.6435547c0.097168-0.2587891,0.3867188-0.3886719,0.6435547-0.2929688
						c2.3710938,0.8881836,4.7270508,1.90625,7.0024414,3.0263672c0.2480469,0.1220703,0.3496094,0.421875,0.2280273,0.6694336
						C383.3825989,120.2158585,383.2048645,120.3183975,383.0202942,120.3183975z" class="color0a0a19 svgShape"></path>
              <path fill="#ffbb32" d="M207.9076996,295.3675537c-9.3923645-0.4012756-18.3264618,2.9781494-25.1129456,9.478363
						c-6.7864685,6.5001831-10.5089874,15.2626648-10.5089874,24.6543274c0,13.0577393,7.2445679,24.7410278,18.8703613,30.5533142
						c7.2160797,3.6087341,12.3703308,10.8821411,13.8594055,19.643219
						c0.2030945,1.6941223,2.5775452,1.6328125,2.8348389,0.0866699
						c0.0883179-0.2042236,1.1842957-12.8127747,14.8615723-20.2164612
						c10.9385834-5.8989868,17.8108826-17.2956543,17.9255219-29.7227783v-0.3146057
						C240.6374664,311.4034424,226.0048676,296.1114197,207.9076996,295.3675537z M206.4759521,342.9299011
						c-7.072937,0-12.7999268-5.7270203-12.7999268-12.7990723c0-7.0161133,5.7269897-12.7710876,12.7999268-12.7710876
						c7.0440979,0,12.7997589,5.7549744,12.7997589,12.7710876
						C219.2757111,337.2028809,213.52005,342.9299011,206.4759521,342.9299011z" class="colorffbb32 svgShape"></path>
              <path fill="#0a0a19"
                d="M206.4758759 343.429718c-7.3334961 0-13.2998047-5.9658203-13.2998047-13.2988281 0-7.3178711 5.9663086-13.2709961 13.2998047-13.2709961s13.2998047 5.953125 13.2998047 13.2709961C219.7756805 337.4638977 213.8093719 343.429718 206.4758759 343.429718zM206.4758759 317.8598938c-6.7822266 0-12.2998047 5.5048828-12.2998047 12.2709961 0 6.7817383 5.5175781 12.2988281 12.2998047 12.2988281s12.2998047-5.5170898 12.2998047-12.2988281C218.7756805 323.3647766 213.2581024 317.8598938 206.4758759 317.8598938zM174.7996063 316.5488586c-.2543945-.1079102-.3725586-.4018555-.2641602-.6557617 1.0429688-2.449707 2.3789063-4.7827148 3.9711914-6.9350586.1640625-.2216797.4765625-.2695313.6992188-.1044922.222168.1640625.269043.4770508.1044922.6992188-1.5454102 2.0893555-2.8422852 4.3544922-3.8549805 6.7319336C175.345993 316.5416565 175.0503387 316.6560364 174.7996063 316.5488586zM234.6750946 311.2866516c-11.3722992-17.4406433-34.8470154-20.4010315-50.0634766-7.4101563-.2094727.1782227-.5249023.1542969-.7050781-.0556641-.1791992-.2099609-.1542969-.5258789.0556641-.7050781 15.7342072-13.4328003 39.8909607-10.2555237 51.5507813 7.625.1508789.230957.0854492.5410156-.1459961.6918945C235.1368103 311.58255 234.827301 311.5192261 234.6750946 311.2866516zM193.4187469 444.473175c-.2368164-.1420898-.3134766-.4492188-.1713867-.6860352l2.5742188-4.2866211c.1420898-.2363281.4487305-.3139648.6860352-.1713867.2368164.1420898.3134766.4492188.1713867.6860352l-2.5742188 4.2866211C193.9624634 444.5390015 193.6549377 444.6148987 193.4187469 444.473175zM198.5671844 435.9004211c-.2368164-.1420898-.3134766-.4492188-.1713867-.6860352l2.5742188-4.2866211c.1416016-.2368164.4487305-.3134766.6860352-.1713867.2368164.1420898.3134766.4492188.1713867.6860352l-2.5742188 4.2866211C199.1109009 435.9662476 198.8033752 436.0421448 198.5671844 435.9004211zM203.7156219 427.3276672c-.2368164-.1420898-.3134766-.4492188-.1713867-.6860352l2.574707-4.2866211c.1420898-.2368164.4487305-.3139648.6860352-.1713867.2368164.1420898.3134766.4492188.1713867.6860352l-2.574707 4.2866211C204.2593384 427.3934937 203.9518127 427.4693909 203.7156219 427.3276672zM208.8645477 418.7549133c-.2368164-.1420898-.3134766-.4492188-.1713867-.6860352l2.5742188-4.2866211c.1420898-.2363281.4487305-.3134766.6860352-.1713867.2368164.1420898.3134766.4492188.1713867.6860352l-2.5742188 4.2866211C209.4082642 418.8207397 209.1007385 418.896637 208.8645477 418.7549133zM214.0129852 410.1821594c-.2368164-.1420898-.3134766-.4492188-.1713867-.6860352l2.5742188-4.2866211c.1416016-.2368164.4487305-.3129883.6860352-.1713867.2368164.1420898.3134766.4492188.1713867.6860352l-2.5742188 4.2866211C214.5567017 410.2479858 214.249176 410.3238831 214.0129852 410.1821594zM219.1614227 401.6094055c-.2368164-.1420898-.3134766-.4492188-.1713867-.6860352l2.5742188-4.2866211c.1420898-.2363281.4482422-.3139648.6860352-.1713867.2368164.1420898.3134766.4492188.1713867.6860352l-2.5742188 4.2866211C219.7051392 401.6752319 219.3976135 401.7511292 219.1614227 401.6094055zM224.3098602 393.0366516c-.2368164-.1420898-.3134766-.4492188-.1713867-.6860352l2.574707-4.2866211c.1416016-.2368164.4487305-.3134766.6860352-.1713867.2368164.1420898.3134766.4492188.1713867.6860352l-2.574707 4.2866211C224.8535767 393.102478 224.546051 393.1783752 224.3098602 393.0366516zM229.458786 384.4638977c-.2368164-.1420898-.3134766-.4492188-.1713867-.6860352l2.5742188-4.2866211c.1420898-.2368164.4482422-.3144531.6860352-.1713867.2368164.1420898.3134766.4492188.1713867.6860352l-2.5742188 4.2866211C230.0025024 384.5297241 229.6949768 384.6056213 229.458786 384.4638977zM234.6072235 375.8911438c-.2368164-.1420898-.3134766-.4492188-.1713867-.6860352l2.5742188-4.2866211c.1420898-.2373047.4492188-.3139648.6860352-.1713867.2368164.1420898.3134766.4492188.1713867.6860352l-2.5742188 4.2866211C235.1509399 375.9569702 234.8434143 376.0328674 234.6072235 375.8911438zM239.634079 367.139679c-.0463867-.2724609.1367188-.5307617.4086914-.5771484l4.9291992-.8378906c.2709961-.0439453.53125.1367188.5771484.4086914.0458984.2724609-.137207.5307617-.4091797.5766602l-4.9291992.8383789C239.940033 367.5950623 239.6800232 367.4126587 239.634079 367.139679zM249.4919891 365.4624329c-.0458984-.2724609.137207-.5307617.4091797-.5771484l4.9291992-.8383789c.2714844-.0390625.53125.137207.5771484.4091797.0458984.2724609-.137207.5307617-.4091797.5766602l-4.9291992.8388672C249.779541 365.9165649 249.5361328 365.7215576 249.4919891 365.4624329zM259.3503723 363.7851868c-.0458984-.2724609.137207-.5307617.4091797-.5771484l4.9287109-.8383789c.2724609-.0390625.5307617.137207.5771484.4091797.0458984.2724609-.137207.5307617-.4091797.5771484l-4.9287109.8383789C259.6379395 364.2393188 259.3945313 364.0443115 259.3503723 363.7851868zM269.2087708 362.1079407c-.0463867-.2724609.1367188-.5307617.4086914-.5766602l4.9291992-.8388672c.2729492-.0395508.5307617.137207.5771484.4091797.0458984.2724609-.137207.5307617-.4091797.5771484l-4.9291992.8383789C269.4952698 362.5621643 269.2523193 362.3665466 269.2087708 362.1079407zM279.0666809 360.4311829c-.0458984-.2724609.137207-.5307617.4091797-.5766602l4.9291992-.8388672c.2734375-.0449219.5307617.1367188.5771484.4086914.0458984.2724609-.137207.5307617-.4091797.5771484l-4.9291992.8383789C279.3726196 360.8866272 279.1130981 360.7036743 279.0666809 360.4311829zM288.9250793 358.7539368c-.0458984-.2724609.137207-.5307617.4091797-.5766602l4.9291992-.8388672c.2739258-.0449219.5307617.1367188.5766602.4086914.0463867.2724609-.1367188.5307617-.4086914.5766602l-4.9291992.8388672C289.2310181 359.2093811 288.9714966 359.0264282 288.9250793 358.7539368zM298.7839661 357.0766907c-.0463867-.2724609.1367188-.5307617.4086914-.5766602l4.9291992-.8388672c.2744141-.0454102.5302734.1367188.5766602.4086914.0463867.2724609-.1367188.5307617-.4086914.5766602l-4.9291992.8393555C299.0704651 357.5309143 298.8275146 357.3352966 298.7839661 357.0766907zM308.6423645 355.3994446c-.0463867-.2724609.1367188-.5307617.4086914-.5766602l4.9291992-.8393555c.2749023-.0405273.5307617.137207.5766602.4091797.0463867.2724609-.1367188.5307617-.4086914.5766602l-4.9291992.8388672C308.9482422 355.8548279 308.6888733 355.6724243 308.6423645 355.3994446zM318.5007629 353.7221985c-.0463867-.2724609.1367188-.5307617.4086914-.5766602l1.0078125-.171875-.5-2.9355469c-.0458984-.2724609.137207-.5307617.4091797-.5771484.2719727-.0395508.5302734.137207.5766602.4091797l.5834961 3.4287109c.0463867.2724609-.1367188.5307617-.4086914.5766602l-1.5004883.2553711C318.8066406 354.1775818 318.5472717 353.9951782 318.5007629 353.7221985zM318.5788879 345.1089172l-.8393555-4.9287109c-.0463867-.2724609.1367188-.5307617.4086914-.5766602.2724609-.0458984.5302734.1367188.5766602.4086914l.8393555 4.9287109c.0463867.2724609-.1367188.5307617-.4086914.5766602C318.8847656 345.5643005 318.6253967 345.381897 318.5788879 345.1089172zM316.9006653 335.2510071l-.8388672-4.9291992c-.0463867-.2724609.1367188-.5307617.4086914-.5766602.2729492-.0463867.5302734.1367188.5766602.4086914l.8388672 4.9291992c.0463867.2724609-.1367188.5307617-.4086914.5766602C317.206543 335.7063904 316.9471741 335.5239868 316.9006653 335.2510071zM315.2229309 325.3926086l-.8393555-4.9291992c-.0463867-.2724609.1367188-.5307617.4086914-.5766602.2734375-.046875.5302734.137207.5766602.4086914l.8393555 4.9291992c.0463867.2724609-.1367188.5307617-.4086914.5766602C315.5288086 325.8479919 315.2694397 325.6655884 315.2229309 325.3926086zM313.5447083 315.5346985l-.8388672-4.9291992c-.0463867-.2724609.1367188-.5307617.4086914-.5766602.2739258-.043457.5302734.1367188.5766602.4086914l.8388672 4.9291992c.0463867.2724609-.1367188.5307617-.4086914.5766602C313.8505859 315.9900818 313.591217 315.8076782 313.5447083 315.5346985zM311.8669739 305.6763l-.8393555-4.9291992c-.0463867-.2724609.1367188-.5307617.4086914-.5766602.2744141-.0439453.5307617.1367188.5766602.4086914l.8393555 4.9291992c.0463867.2724609-.1367188.5307617-.4086914.5766602C312.1728516 306.1316833 311.9134827 305.9492798 311.8669739 305.6763zM310.1887512 295.8179016l-.8388672-4.9287109c-.0463867-.2724609.1367188-.5307617.4086914-.5766602.2744141-.0449219.5307617.1367188.5766602.4086914l.8388672 4.9287109c.0463867.2724609-.1367188.5307617-.4086914.5766602C310.4947205 296.2732849 310.2347107 296.0908813 310.1887512 295.8179016zM312.0935364 288.5556946c-.0400391-.2729492.1494141-.5268555.4228516-.5664063l4.9482422-.71875c.2719727-.0463867.5263672.1489258.5664063.4228516.0400391.2729492-.1494141.5268555-.4228516.5664063l-4.9482422.71875C312.3986816 289.0203552 312.1343384 288.8367615 312.0935364 288.5556946zM321.9900208 287.1186829c-.0400391-.2729492.1494141-.5268555.4228516-.5664063l4.9477539-.71875c.2744141-.0454102.5268555.1494141.5664063.4228516.0400391.2729492-.1494141.5268555-.4228516.5664063l-4.9477539.71875C322.295166 287.5833435 322.0308228 287.3997498 321.9900208 287.1186829zM331.8860168 285.6811829c-.0400391-.2729492.1494141-.5268555.4228516-.5664063l4.4174805-.6416016c.2749023-.0444336.5268555.1494141.5664063.4228516.0400391.2729492-.1494141.5268555-.4228516.5664063l-4.4174805.6416016C332.1911621 286.1458435 331.9268188 285.9622498 331.8860168 285.6811829z"
                class="color0a0a19 svgShape"></path>
              <path fill="#ffffff" d="M495.7140808,429.3146973c0,3.6876831-2.9946289,6.6824341-6.6825256,6.6824341
					c-3.6874695,0-6.6820984-2.994751-6.6820984-6.6824341c0-3.6959839,2.9946289-6.6824341,6.6820984-6.6824341
					C492.7194519,422.6322632,495.7140808,425.6187134,495.7140808,429.3146973z" class="colorfff svgShape"></path>
              <path fill="#0a0a19" d="M481.8493958,429.3144836c0-6.0388489,7.0160522-9.3387756,11.671875-5.6069336
					c0.2158203,0.1728516,0.2504883,0.4873047,0.0776367,0.7026367c-0.171875,0.2163086-0.4873047,0.2504883-0.7026367,0.0776367
					c-4.0097656-3.2134705-10.046875-0.368103-10.046875,4.8266602c0,5.0509033,5.7435913,7.9395752,9.7949219,5.0166016
					c0.2246094-0.1611328,0.5366211-0.1108398,0.6977539,0.112793c0.1616211,0.2236328,0.1113281,0.5361328-0.112793,0.6977539
					C488.5276489,438.5352173,481.8493958,435.187561,481.8493958,429.3144836z" class="color0a0a19 svgShape"></path>
              <path fill="#fca495"
                d="M440.1975403 358.749054c-2.5229492-9.0839844-10.2490234-15.4213867-10.3266602-15.484375-.2148438-.1738281-.2480469-.4882813-.0742188-.703125.1733398-.2143555.4873047-.2480469.703125-.0742188.3276367.2646484 8.050293 6.59375 10.6616211 15.9941406.0737305.2661133-.0820313.5415039-.3481445.6157227C440.5415649 359.171051 440.2703857 359.0109253 440.1975403 358.749054zM419.1887512 360.882843c-2.4111328-7.875-9.8637695-13.8833008-9.9384766-13.9428711-.2158203-.1723633-.2514648-.4868164-.0795898-.7026367s.4868164-.2519531.7026367-.0795898c.3164063.2519531 7.7705078 6.2636719 10.2714844 14.4321289.0810547.2641602-.0673828.5439453-.331543.6245117C419.5561523 361.2940979 419.2712708 361.1523438 419.1887512 360.882843zM392.5979309 368.4951477c-1.4003906-7.4038086-5.8720703-12.2133789-5.9174805-12.2612305-.1889648-.2006836-.1801758-.5170898.0205078-.706543.2011719-.1899414.5175781-.1796875.706543.0195313.1918945.203125 4.7158203 5.0585938 6.1728516 12.7626953.0512695.2709961-.1269531.5327148-.3984375.5839844C392.9075623 368.9450378 392.6488342 368.7643127 392.5979309 368.4951477z"
                class="colorfca495 svgShape"></path>
              <path fill="#ffffff" d="M89.4475479,424.0914001c0,3.6876831-2.9946213,6.6824036-6.6825027,6.6824036
					c-3.6874847,0-6.682106-2.9947205-6.682106-6.6824036c0-3.6959839,2.9946213-6.6824646,6.682106-6.6824646
					C86.4529266,417.4089355,89.4475479,420.3954163,89.4475479,424.0914001z" class="colorfff svgShape"></path>
              <path fill="#0a0a19" d="M82.7649384,431.2739563c-0.2763672,0-0.5-0.2236328-0.5-0.5s0.2236328-0.5,0.5-0.5
					c3.4091797,0,6.1826172-2.7734375,6.1826172-6.1826172s-2.7734375-6.1826172-6.1826172-6.1826172
					c-3.4086914,0-6.1821289,2.7734375-6.1821289,6.1826172c0,0.2763672-0.2236328,0.5-0.5,0.5s-0.5-0.2236328-0.5-0.5
					c0-3.9604492,3.2216797-7.1826172,7.1821289-7.1826172s7.1826172,3.222168,7.1826172,7.1826172
					S86.7253876,431.2739563,82.7649384,431.2739563z" class="color0a0a19 svgShape"></path>
              <path fill="#ffc8bb"
                d="M314.7867432,502.2024841c0.2404785,0.8225403-0.5189514,1.5820618-1.3415833,1.3286743
					l-11.5681152-3.644928c-5.7840576,3.9360046-12.757843,6.2392883-20.2758484,6.2392883
					c-19.9214172,0-36.058548-16.1494751-36.058548-36.071228c0-19.934082,16.1371307-36.0711975,36.058548-36.0711975
					s36.0838623,16.1371155,36.0838623,36.0711975c0,7.6575928-2.379425,14.7453918-6.4548035,20.579895L314.7867432,502.2024841z"
                class="colorffc8bb svgShape"></path>
              <path fill="#0a0a19"
                d="M312.5271301 451.9555969c-.1694336 0-.3349609-.0859375-.4287109-.2416992-4.2304688-7.0151367-10.793457-12.3959961-18.4799805-15.1513672-.2597656-.0932617-.3950195-.3793945-.3017578-.6396484s.3774414-.3950195.6396484-.3017578c7.9023438 2.8330078 14.6494141 8.3647461 18.9985352 15.5761719.1425781.2363281.0664063.5439453-.1699219.6865234C312.7038879 451.9326477 312.6150208 451.9555969 312.5271301 451.9555969zM285.6179504 434.7041321c-.0180664 0-.0366211-.0009766-.0556641-.0029297-1.3076172-.1450195-2.6401367-.2182617-3.9609375-.2182617-.2763672 0-.5-.2236328-.5-.5s.2236328-.5.5-.5c1.3574219 0 2.7270508.0756836 4.0712891.2241211.2744141.0302734.472168.277832.4418945.5522461C286.0862122 434.514679 285.8694153 434.7041321 285.6179504 434.7041321z"
                class="color0a0a19 svgShape"></path>
              <path fill="#413dea"
                d="M257.2688293 425.4946594l-11.2138519-21.1767578c-.3876953-.7324219-.1083984-1.6401367.6235352-2.027832.7353516-.3886719 1.640625-.1083984 2.027832.6235352l11.2138519 21.1767578c.3876953.7324219.1083984 1.6401367-.6235352 2.027832C258.5576782 426.5078125 257.6539917 426.2223206 257.2688293 425.4946594zM250.970993 431.554718c-5.8007813-3.0717773-11.9511719-5.472168-18.2792969-7.1342773-.8012695-.2104492-1.2802734-1.0302734-1.0698242-1.831543s1.0317383-1.2827148 1.831543-1.0698242c6.5507813 1.7202148 12.9169922 4.2045898 18.921875 7.3842773.7319336.3876953 1.0112305 1.2954102.6235352 2.027832C252.613205 431.6597595 251.7067261 431.9442444 250.970993 431.554718zM266.1736145 423.0786438c-.7949219-.2329102-1.2504883-1.0664063-1.0175781-1.8613281l5.2568359-17.9267578c.2333984-.7944336 1.0634766-1.2514648 1.8618164-1.0170898.7949219.2333984 1.25 1.0664063 1.0170898 1.8613281l-5.2568359 17.9262695C267.7996521 422.8633728 266.9593506 423.3105469 266.1736145 423.0786438z"
                class="color413dea svgShape"></path>
              <path fill="#0a0a19"
                d="M301.4026184 462.6972961h-37.9418945c-.4140625 0-.75-.3359375-.75-.75s.3359375-.75.75-.75h37.9418945c.4140625 0 .75.3359375.75.75S301.8166809 462.6972961 301.4026184 462.6972961zM301.4026184 471.3281555h-37.9418945c-.4140625 0-.75-.3359375-.75-.75s.3359375-.75.75-.75h37.9418945c.4140625 0 .75.3359375.75.75S301.8166809 471.3281555 301.4026184 471.3281555zM282.4319153 479.9590149h-18.9711914c-.4140625 0-.75-.3359375-.75-.75s.3359375-.75.75-.75h18.9711914c.4140625 0 .75.3359375.75.75S282.8459778 479.9590149 282.4319153 479.9590149zM531.3875122 448.7277222c-42.7260742 24.6329346-82.7686462 48.5264282-109.1248474 68.6485596l-4.2870178-13.3977356c26.0500793-22.7377319 63.7505798-43.8703308 103.9786377-64.6546326L531.3875122 448.7277222z"
                class="color0a0a19 svgShape"></path>
              <path fill="#ffffff" d="M511.1889038,473.807312c0,15.9271545-12.9162903,28.8355408-28.8433533,28.8355408
					c-15.9270935,0-28.8355408-12.9083862-28.8355408-28.8355408c0-15.9272156,12.9084473-28.8432007,28.8355408-28.8432007
					C498.2726135,444.9641113,511.1889038,457.8800964,511.1889038,473.807312z" class="colorfff svgShape"></path>
              <path fill="#ffbb32" d="M504.026062,473.8063354c0,11.971344-9.7082825,21.6736755-21.6795349,21.6736755
					c-11.971283,0-21.6736755-9.7023315-21.6736755-21.6736755c0-11.9713745,9.7023926-21.6794128,21.6736755-21.6794128
					C494.3177795,452.1269226,504.026062,461.8349609,504.026062,473.8063354z" class="colorffbb32 svgShape"></path>
              <path fill="#0a0a19" d="M482.3454895,503.1426086c-16.1757813,0-29.3354492-13.159668-29.3354492-29.3354492
					c0-16.1796875,13.159668-29.3432617,29.3354492-29.3432617c16.1796875,0,29.3432617,13.1635742,29.3432617,29.3432617
					C511.6887512,489.9829407,498.525177,503.1426086,482.3454895,503.1426086z M482.3454895,445.4638977
					c-15.6240234,0-28.3354492,12.7148438-28.3354492,28.3432617c0,15.6240234,12.7114258,28.3354492,28.3354492,28.3354492
					c15.628418,0,28.3432617-12.7114258,28.3432617-28.3354492
					C510.6887512,458.1787415,497.9739075,445.4638977,482.3454895,445.4638977z" class="color0a0a19 svgShape"></path>
              <path fill="#ffffff" d="M486.0337219,477.2128601c-5.6196594,5.6196594-14.1821899,6.164917-14.1821899,6.164917
					s0.5449524-8.5628357,6.1646118-14.1824951c5.6196899-5.6196899,14.1824951-6.1646118,14.1824951-6.1646118
					S491.6534424,471.5931702,486.0337219,477.2128601z" class="colorfff svgShape"></path>
              <path fill="#0a0a19"
                d="M483.6681824 472.8683167c0 .9037781-.7319946 1.643219-1.6430664 1.643219-.9114075 0-1.6434021-.7394409-1.6434021-1.643219 0-.9112854.7319946-1.6507568 1.6434021-1.6507568C482.9361877 471.2175598 483.6681824 471.9570313 483.6681824 472.8683167zM185.3826141 150.3476868c-.2763672 0-.5-.2236328-.5-.5 0-6.8447266-5.5742188-12.4130859-12.4257813-12.4130859-.2763672 0-.5-.2236328-.5-.5s.2236328-.5.5-.5c6.1435547 0 11.3369141 4.144043 12.9257813 9.78125 1.5888672-5.637207 6.7822266-9.78125 12.9257813-9.78125.2763672 0 .5.2236328.5.5s-.2236328.5-.5.5c-6.8515625 0-12.4257813 5.5683594-12.4257813 12.4130859C185.8826141 150.124054 185.6589813 150.3476868 185.3826141 150.3476868zM155.555954 127.4697647c-.2763672 0-.5-.2236328-.5-.5 0-10.8427734-8.8300781-19.6640625-19.684082-19.6640625-.2763672 0-.5-.2236328-.5-.5s.2236328-.5.5-.5c9.8496094 0 18.112793 6.9125977 20.184082 16.137207 2.0712891-9.2246094 10.3344727-16.137207 20.184082-16.137207.2763672 0 .5.2236328.5.5s-.2236328.5-.5.5c-10.8540039 0-19.684082 8.8212891-19.684082 19.6640625C156.055954 127.2461319 155.8323212 127.4697647 155.555954 127.4697647zM214.7263641 119.4204483c-.2763672 0-.5-.2236328-.5-.5 0-6.0517578-4.9287109-10.9755859-10.9873047-10.9755859-.2763672 0-.5-.2236328-.5-.5s.2236328-.5.5-.5c5.4179688 0 10.0083008 3.6098633 11.4873047 8.5488281 1.4790039-4.9389648 6.0693359-8.5488281 11.4873047-8.5488281.2763672 0 .5.2236328.5.5s-.2236328.5-.5.5c-6.0585938 0-10.9873047 4.9238281-10.9873047 10.9755859C215.2263641 119.1968155 215.0027313 119.4204483 214.7263641 119.4204483z"
                class="color0a0a19 svgShape"></path>
              <path fill="#fca495"
                d="M542.0232544 308.4082336l-23.9194336-159.984375c-.1225586-.8193359.4423828-1.5825195 1.2617188-1.7050781.8188477-.1225586 1.5825195.4423828 1.7050781 1.2617188l23.9194336 159.984375c.1225586.8193359-.4423828 1.5825195-1.2617188 1.7050781C542.9124146 309.7918091 542.1463013 309.2309265 542.0232544 308.4082336zM553.9827271 306.9863586l-2.0009766-13.3837891c-.1225586-.8193359.4423828-1.5825195 1.2617188-1.7050781.8188477-.1245117 1.5825195.4423828 1.7050781 1.2617188l2.0009766 13.3837891c.1225586.8193359-.4423828 1.5825195-1.2617188 1.7050781C554.8718872 308.3699341 554.1057739 307.8090515 553.9827271 306.9863586zM549.7024536 269.7285461c-.7304688 0-1.3701172-.5341797-1.4814453-1.2783203l-8.0864258-54.0874023c-.1225586-.8193359.4423828-1.5825195 1.2617188-1.7050781.8212891-.1225586 1.5825195.4423828 1.7050781 1.2617188l8.0864258 54.0874023c.1225586.8193359-.4423828 1.5825195-1.2617188 1.7050781C549.8508911 269.723175 549.7761841 269.7285461 549.7024536 269.7285461z"
                class="colorfca495 svgShape"></path>
              <path fill="#e6ebfd"
                d="M431.1720276 68.790451c0 8.5138779-6.8969116 15.4228439-15.4104309 15.4228439-8.5134277 0-15.4104309-6.9089661-15.4104309-15.4228439 0-8.5132904 6.8970032-15.4099846 15.4104309-15.4099846C424.275116 53.3804665 431.1720276 60.2771606 431.1720276 68.790451zM369.2014465 516.4766846c0 4.7092896-3.8148804 8.5308228-8.5239258 8.5308228-4.7090149 0-8.5238953-3.8215332-8.5238953-8.5308228 0-4.7088928 3.8148804-8.5236511 8.5238953-8.5236511C365.3865662 507.9530334 369.2014465 511.7677917 369.2014465 516.4766846z"
                class="colore6ebfd svgShape"></path>
            </svg>