<svg xmlns="http://www.w3.org/2000/svg" xmlns:xlink="http://www.w3.org/1999/xlink" viewBox="0 0 726 694"
              width="726" height="694" preserveAspectRatio="xMidYMid meet"
              style="width: auto; height: 200px; transform: translate3d(0px, 0px, 0px); content-visibility: visible;">
              <defs>
                <clipPath id="__lottie_element_2">
                  <rect width="726" height="694" x="0" y="0"></rect>
                </clipPath>
              </defs>
              <g clip-path="url(#__lottie_element_2)">
                <g transform="matrix(1,0,0,1,363,347)" opacity="1" style="display: block;">
                  <g opacity="1"
                    transform="matrix(1.4785321950912476,1.30186128616333,-1.30186128616333,1.4785321950912476,99.68577575683594,244.640380859375)">
                    <path fill="rgb(233,237,247)" fill-opacity="1"
                      d=" M-136.64199829101562,41.26599884033203 C-131.0279998779297,23.7450008392334 -142.63999938964844,11.031000137329102 -163.9929962158203,7.3420000076293945 C-165.89999389648438,24.167999267578125 -156.5970001220703,43.79899978637695 -136.64199829101562,41.26599884033203z">
                    </path>
                  </g>
                  <g opacity="1"
                    transform="matrix(0.9993380308151245,0.03637996315956116,-0.03637996315956116,0.9993380308151245,19.795150756835938,17.372116088867188)">
                    <g opacity="1" transform="matrix(1,0,0,1,0,0)">
                      <path fill="rgb(206,211,248)" fill-opacity="1"
                        d=" M-174.49099731445312,136.46099853515625 C-144.375,97.68800354003906 -161.87600708007812,55.209999084472656 -212.0709991455078,26.440000534057617 C-232.24600219726562,66.86199951171875 -226.86599731445312,124.56099700927734 -174.49099731445312,136.46099853515625z">
                      </path>
                    </g>
                    <g opacity="1" transform="matrix(1,0,0,1,0,0)">
                      <path stroke-linecap="round" stroke-linejoin="round" fill-opacity="0" stroke="rgb(233,237,247)"
                        stroke-opacity="1" stroke-width="2"
                        d=" M-174.49099731445312,136.46099853515625 C-182.2689971923828,117.33799743652344 -195.11900329589844,68.85199737548828 -206.83399963378906,39.696998596191406">
                      </path>
                    </g>
                  </g>
                  <g opacity="1"
                    transform="matrix(0.9797027111053467,0.20045600831508636,-0.20045600831508636,0.9797027111053467,41.071319580078125,27.97381591796875)">
                    <g opacity="1" transform="matrix(1,0,0,1,0,0)">
                      <path fill="rgb(66,62,175)" fill-opacity="1"
                        d=" M-124.70800018310547,210.61300659179688 C-117.6240005493164,194.71800231933594 -113.21399688720703,149.7969970703125 -147.99200439453125,134.26300048828125 C-163.73300170898438,127.23200225830078 -168.2790069580078,126.31300354003906 -174.62100219726562,129.12600708007812 C-178.7530059814453,130.95799255371094 -181.3000030517578,134.6009979248047 -185.0540008544922,133.1320037841797 C-191.91600036621094,130.4459991455078 -181.87399291992188,104.76499938964844 -205.8520050048828,92.62799835205078 C-229.82899475097656,80.49099731445312 -242.406005859375,95.48699951171875 -248.843994140625,92.13500213623047 C-255.28500366210938,88.77999877929688 -253.36399841308594,77.552001953125 -266.1180114746094,76.10700225830078 C-278.87200927734375,74.66000366210938 -281.6659851074219,95.56300354003906 -298.31201171875,95.96299743652344 C-315.62701416015625,96.38400268554688 -344.1830139160156,103.43599700927734 -343.78399658203125,119.87300109863281 C-343.385009765625,136.30999755859375 -330.0320129394531,135.32699584960938 -323.02099609375,144.14700317382812 C-316.010009765625,152.9720001220703 -316.03900146484375,185.427001953125 -290.4580078125,184.80599975585938 C-265.0369873046875,184.19200134277344 -255.70199584960938,180.23800659179688 -243.802001953125,209.77099609375 C-231.9029998779297,239.30999755859375 -200.61399841308594,245.56700134277344 -186.75100708007812,238.4320068359375 C-172.88800048828125,231.29800415039062 -174.3179931640625,240.2169952392578 -180.62399291992188,246.83700561523438 C-186.93499755859375,253.45700073242188 -173.16099548339844,256.30499267578125 -162.74600219726562,251.66799926757812 C-152.33299255371094,247.0279998779297 -133.5989990234375,230.5679931640625 -124.70800018310547,210.61300659179688z">
                      </path>
                    </g>
                    <g opacity="1" transform="matrix(1,0,0,1,0,0)">
                      <path stroke-linecap="round" stroke-linejoin="round" fill-opacity="0" stroke="rgb(86,82,204)"
                        stroke-opacity="1" stroke-width="2"
                        d=" M-118.15399932861328,216.37600708007812 C-176.66200256347656,156.9409942626953 -255.33299255371094,127.5979995727539 -314.3450012207031,122.12100219726562">
                      </path>
                    </g>
                    <g opacity="1" transform="matrix(1,0,0,1,0,0)">
                      <path stroke-linecap="round" stroke-linejoin="round" fill-opacity="0" stroke="rgb(86,82,204)"
                        stroke-opacity="1" stroke-width="2"
                        d=" M-266.9729919433594,130.81500244140625 C-268.177001953125,126.9219970703125 -271.0580139160156,109.88999938964844 -268.83099365234375,99.96600341796875">
                      </path>
                    </g>
                    <g opacity="1" transform="matrix(1,0,0,1,0,0)">
                      <path stroke-linecap="round" stroke-linejoin="round" fill-opacity="0" stroke="rgb(86,82,204)"
                        stroke-opacity="1" stroke-width="2"
                        d=" M-279.3450012207031,127.76000213623047 C-284.7460021972656,130.97000122070312 -295.1990051269531,141.93800354003906 -297.6600036621094,145.50799560546875">
                      </path>
                    </g>
                    <g opacity="1" transform="matrix(1,0,0,1,0,0)">
                      <path stroke-linecap="round" stroke-linejoin="round" fill-opacity="0" stroke="rgb(86,82,204)"
                        stroke-opacity="1" stroke-width="2"
                        d=" M-216.37600708007812,148.8730010986328 C-218.66200256347656,143.15699768066406 -222.6739959716797,131.41200256347656 -218.5019989013672,113.55000305175781">
                      </path>
                    </g>
                    <g opacity="1" transform="matrix(1,0,0,1,0,0)">
                      <path stroke-linecap="round" stroke-linejoin="round" fill-opacity="0" stroke="rgb(86,82,204)"
                        stroke-opacity="1" stroke-width="2"
                        d=" M-235.7519989013672,140.8820037841797 C-241.26400756835938,142.60899353027344 -255.9770050048828,155.35499572753906 -261.8559875488281,161.5260009765625">
                      </path>
                    </g>
                    <g opacity="1" transform="matrix(1,0,0,1,0,0)">
                      <path stroke-linecap="round" stroke-linejoin="round" fill-opacity="0" stroke="rgb(86,82,204)"
                        stroke-opacity="1" stroke-width="2"
                        d=" M-179.17100524902344,168.38499450683594 C-187.05499267578125,171.55799865722656 -193.64999389648438,179.82899475097656 -198.5709991455078,184.9949951171875">
                      </path>
                    </g>
                    <g opacity="1" transform="matrix(1,0,0,1,0,0)">
                      <path stroke-linecap="round" stroke-linejoin="round" fill-opacity="0" stroke="rgb(86,82,204)"
                        stroke-opacity="1" stroke-width="2"
                        d=" M-159.38900756835938,181.3699951171875 C-163.4149932861328,174.21800231933594 -165.59800720214844,158.81300354003906 -164.5570068359375,147.44000244140625">
                      </path>
                    </g>
                  </g>
                  <g opacity="1"
                    transform="matrix(1.3567668199539185,-0.18995778262615204,0.18995778262615204,1.3567668199539185,-46.10816955566406,50.66883087158203)">
                    <path fill="rgb(206,211,248)" fill-opacity="1"
                      d=" M78.89600372314453,82.95500183105469 C99.47599792480469,72.0250015258789 100.18199920654297,50.233001708984375 84.07599639892578,28.01099967956543 C67.47200012207031,41.58700180053711 58.55799865722656,67.61399841308594 78.89600372314453,82.95500183105469z">
                    </path>
                  </g>
                  <g opacity="1"
                    transform="matrix(1.5989408493041992,0.05820794031023979,-0.05820794031023979,1.5989408493041992,-52.35835266113281,-13.504608154296875)">
                    <g opacity="1" transform="matrix(1,0,0,1,0,0)">
                      <path fill="rgb(221,226,248)" fill-opacity="1"
                        d=" M82.64199829101562,110.31400299072266 C69.28399658203125,70.54900360107422 95.3499984741211,41.198001861572266 143.9080047607422,32.111000061035156 C148.79100036621094,70.40799713134766 128.20799255371094,115.45600128173828 82.64199829101562,110.31400299072266z">
                      </path>
                    </g>
                    <g opacity="1" transform="matrix(1,0,0,1,0,0)">
                      <path stroke-linecap="round" stroke-linejoin="round" fill-opacity="0" stroke="rgb(187,192,230)"
                        stroke-opacity="1" stroke-width="2"
                        d=" M82.64199829101562,110.31400299072266 C94.2969970703125,97.0719985961914 118.30400085449219,61.564998626708984 135.95799255371094,41.33399963378906">
                      </path>
                    </g>
                  </g>
                  <g opacity="1"
                    transform="matrix(0.9994633197784424,0.03275817632675171,-0.03275817632675171,0.9994633197784424,6.922901153564453,-1.5556640625)">
                    <path fill="rgb(66,62,175)" fill-opacity="1"
                      d=" M49.23400115966797,212.04600524902344 C50.611000061035156,218.4669952392578 106.20700073242188,245.5050048828125 112.0719985961914,235.20799255371094 C116.63999938964844,227.1909942626953 108.23799896240234,222.16700744628906 105.0469970703125,220.5800018310547 C100.01599884033203,218.0850067138672 87.52100372314453,212.8679962158203 89.95700073242188,209.43800354003906 C94.36699676513672,203.22900390625 124.28099822998047,220.45199584960938 131.8280029296875,224.197998046875 C139.3730010986328,227.94400024414062 155.0469970703125,233.16900634765625 163.03599548339844,228.37100219726562 C171.0240020751953,223.57200622558594 173.71299743652344,220.70599365234375 160.14599609375,214.88400268554688 C146.57699584960938,209.06100463867188 118.41999816894531,200.9250030517578 128.1540069580078,196.26199340820312 C137.88299560546875,191.5959930419922 158.27099609375,202.99400329589844 172.3509979248047,205.23800659179688 C186.42999267578125,207.47900390625 213.9969940185547,206.968994140625 209.3769989013672,197.3260040283203 C205.2480010986328,188.7010040283203 163.1479949951172,188.07000732421875 166.4219970703125,181.47799682617188 C169.03900146484375,176.2030029296875 180.35899353027344,180.7270050048828 199.08599853515625,181.98899841308594 C217.81199645996094,183.2519989013672 235.50100708007812,184.25100708007812 237.2740020751953,173.19000244140625 C238.6999969482422,164.3090057373047 226.5399932861328,166.03599548339844 216.4510040283203,165.2270050048828 C206.36099243164062,164.41799926757812 192.35400390625,162.75999450683594 196.13299560546875,158.427001953125 C199.91000366210938,154.093994140625 248.85800170898438,162.81399536132812 254.35699462890625,148.98399353027344 C257.9960021972656,139.8350067138672 246.96299743652344,141.2969970703125 235.27499389648438,139.69400024414062 C223.58999633789062,138.0919952392578 219.5989990234375,136.6580047607422 220.6909942626953,134.46299743652344 C221.78199768066406,132.26499938964844 237.89700317382812,131.86599731445312 246.7530059814453,131.88099670410156 C255.60800170898438,131.8939971923828 268.31298828125,128.88800048828125 268.614013671875,120.63800048828125 C268.9100036621094,112.38400268554688 254.71800231933594,113.8280029296875 249.5989990234375,115.5790023803711 C244.48199462890625,117.33000183105469 238.8560028076172,116.81800079345703 238.35000610351562,115.29000091552734 C237.8419952392578,113.76100158691406 254.3260040283203,106.78700256347656 249.3979949951172,98.86100006103516 C244.468994140625,90.93599700927734 229.36300659179688,99.13999938964844 225.2169952392578,107.49299621582031 C221.072998046875,115.84200286865234 215.1820068359375,126.98200225830078 212.13400268554688,125.46499633789062 C209.08700561523438,123.9520034790039 213.88699340820312,114.28399658203125 217.6699981689453,106.66600036621094 C221.45199584960938,99.0479965209961 221.21400451660156,95.15499877929688 219.1820068359375,94.14800262451172 C212.41099548339844,90.78600311279297 201.7830047607422,97.86599731445312 199.01800537109375,103.43299865722656 C196.25399780273438,108.9990005493164 184.8249969482422,142.2209930419922 180.32699584960938,139.98800659179688 C175.82899475097656,137.7550048828125 181.4290008544922,125.74500274658203 184.48300170898438,119.59100341796875 C187.53900146484375,113.43800354003906 194.66700744628906,99.08000183105469 187.1219940185547,95.33699798583984 C179.57699584960938,91.58899688720703 165.91200256347656,108.90899658203125 160.8179931640625,120.98999786376953 C155.72500610351562,133.07000732421875 148.9550018310547,153.2689971923828 145.4720001220703,151.53700256347656 C141.99200439453125,149.80799865722656 144.69200134277344,132.7050018310547 148.40199279785156,125.23300170898438 C152.11199951171875,117.76499938964844 162.50399780273438,106.30400085449219 153.21600341796875,101.69400024414062 C143.93099975585938,97.08499908447266 136.3800048828125,107.55500030517578 129.09800720214844,122.2239990234375 C126.05500030517578,128.35299682617188 118.6760025024414,143.6009979248047 119.74400329589844,154.39100646972656 C120.95800018310547,166.67100524902344 119.55000305175781,172.99000549316406 116.70500183105469,173.41299438476562 C111.04299926757812,174.2530059814453 111.41799926757812,163.302001953125 113.45700073242188,155.54800415039062 C115.49600219726562,147.79299926757812 123.28800201416016,124.08699798583984 110.80400085449219,123.00299835205078 C98.31999969482422,121.91799926757812 96.91999816894531,142.58999633789062 95.53199768066406,150.85000610351562 C94.1449966430664,159.10899353027344 91.79399871826172,188.6179962158203 85.33399963378906,188.14999389648438 C78.87300109863281,187.6820068359375 84.26000213623047,172.4600067138672 85.4260025024414,167.56100463867188 C86.59300231933594,162.66099548339844 85.76899719238281,151.7530059814453 81.3030014038086,153.27999877929688 C76.83699798583984,154.8040008544922 46.779998779296875,200.59500122070312 49.23400115966797,212.04600524902344z">
                    </path>
                  </g>
                  <g opacity="1"
                    transform="matrix(0.9998981356620789,-0.014271416701376438,0.014271416701376438,0.9998981356620789,-3.12945556640625,3.8428192138671875)">
                    <g opacity="1" transform="matrix(1,0,0,1,0,0)">
                      <path stroke-linecap="round" stroke-linejoin="round" fill-opacity="0" stroke="rgb(221,226,248)"
                        stroke-opacity="1" stroke-width="2"
                        d=" M267.3800048828125,221.47999572753906 C270.1099853515625,200.45899963378906 276.25,159.3820037841797 309.47100830078125,120.48400115966797">
                      </path>
                    </g>
                    <g opacity="1" transform="matrix(1,0,0,1,0,0)">
                      <path stroke-linecap="round" stroke-linejoin="round" fill-opacity="0" stroke="rgb(221,226,248)"
                        stroke-opacity="1" stroke-width="2"
                        d=" M292.5740051269531,143.94900512695312 C294.760009765625,143.04100036621094 301.7560119628906,141.68099975585938 309.9859924316406,143.92100524902344">
                      </path>
                    </g>
                    <g opacity="1" transform="matrix(1,0,0,1,0,0)">
                      <path stroke-linecap="round" stroke-linejoin="round" fill-opacity="0" stroke="rgb(221,226,248)"
                        stroke-opacity="1" stroke-width="2"
                        d=" M295.73199462890625,138.88499450683594 C295.03399658203125,134.28700256347656 293.37298583984375,126.26799774169922 291.4070129394531,122.36100006103516">
                      </path>
                    </g>
                    <g opacity="1" transform="matrix(1,0,0,1,0,0)">
                      <path stroke-linecap="round" stroke-linejoin="round" fill-opacity="0" stroke="rgb(221,226,248)"
                        stroke-opacity="1" stroke-width="2"
                        d=" M283.4750061035156,161.29100036621094 C282.9119873046875,157.4530029296875 280.09600830078125,148.09500122070312 277.8940124511719,145.6750030517578">
                      </path>
                    </g>
                    <g opacity="1" transform="matrix(1,0,0,1,0,0)">
                      <path stroke-linecap="round" stroke-linejoin="round" fill-opacity="0" stroke="rgb(221,226,248)"
                        stroke-opacity="1" stroke-width="2"
                        d=" M279.6669921875,170.33299255371094 C282.4800109863281,168.32699584960938 288.1319885253906,163.1060028076172 298.12799072265625,165.2270050048828">
                      </path>
                    </g>
                    <g opacity="1" transform="matrix(1,0,0,1,0,0)">
                      <path stroke-linecap="round" stroke-linejoin="round" fill-opacity="0" stroke="rgb(221,226,248)"
                        stroke-opacity="1" stroke-width="2"
                        d=" M274.4469909667969,185.78700256347656 C273.5299987792969,180.822998046875 272.5899963378906,173.23300170898438 267.0920104980469,171.3209991455078">
                      </path>
                    </g>
                    <g opacity="1" transform="matrix(1,0,0,1,0,0)">
                      <path stroke-linecap="round" stroke-linejoin="round" fill-opacity="0" stroke="rgb(221,226,248)"
                        stroke-opacity="1" stroke-width="2"
                        d=" M272.5199890136719,192.9709930419922 C275.7409973144531,189.88800048828125 279.6520080566406,186.16700744628906 288.2909851074219,186.3070068359375">
                      </path>
                    </g>
                    <g opacity="1" transform="matrix(1,0,0,1,0,0)">
                      <path stroke-linecap="round" stroke-linejoin="round" fill-opacity="0" stroke="rgb(221,226,248)"
                        stroke-opacity="1" stroke-width="2"
                        d=" M270.33599853515625,202.81100463867188 C268.18798828125,197.09800720214844 264.5589904785156,191.94000244140625 260.8940124511719,190.6649932861328">
                      </path>
                    </g>
                    <g opacity="1" transform="matrix(1,0,0,1,0,0)">
                      <path stroke-linecap="round" stroke-linejoin="round" fill-opacity="0" stroke="rgb(221,226,248)"
                        stroke-opacity="1" stroke-width="2"
                        d=" M267.8420104980469,218.00799560546875 C270.6679992675781,214.32899475097656 276.75799560546875,208.26100158691406 284.22900390625,208.94000244140625">
                      </path>
                    </g>
                    <g opacity="1" transform="matrix(1,0,0,1,0,0)">
                      <path fill="rgb(159,156,255)" fill-opacity="1"
                        d=" M316.97198486328125,117.36499786376953 C317.1759948730469,114.61100006103516 315.1080017089844,112.21399688720703 312.3550109863281,112.01000213623047 C309.60198974609375,111.80500030517578 307.2040100097656,113.87100219726562 307,116.625 C306.7950134277344,119.37799835205078 308.8609924316406,121.7770004272461 311.6159973144531,121.98100280761719 C314.3699951171875,122.18499755859375 316.76800537109375,120.11799621582031 316.97198486328125,117.36499786376953z">
                      </path>
                    </g>
                    <g opacity="1" transform="matrix(1,0,0,1,0,0)">
                      <path fill="rgb(159,156,255)" fill-opacity="1"
                        d=" M295.18798828125,121.90899658203125 C295.343994140625,119.79900360107422 293.760986328125,117.96199798583984 291.6510009765625,117.80500030517578 C289.5419921875,117.6500015258789 287.7040100097656,119.23300170898438 287.5480041503906,121.34200286865234 C287.3919982910156,123.45099639892578 288.97601318359375,125.28900146484375 291.0849914550781,125.44499969482422 C293.1940002441406,125.60099792480469 295.0299987792969,124.01699829101562 295.18798828125,121.90899658203125z">
                      </path>
                    </g>
                    <g opacity="1" transform="matrix(1,0,0,1,0,0)">
                      <path fill="rgb(159,156,255)" fill-opacity="1"
                        d=" M316.0249938964844,144.71099853515625 C316.1809997558594,142.6020050048828 314.5989990234375,140.76300048828125 312.489990234375,140.60699462890625 C310.3800048828125,140.4510040283203 308.5429992675781,142.03500366210938 308.385986328125,144.14300537109375 C308.2300109863281,146.2530059814453 309.81298828125,148.08999633789062 311.9219970703125,148.2469940185547 C314.031005859375,148.40199279785156 315.8689880371094,146.82000732421875 316.0249938964844,144.71099853515625z">
                      </path>
                    </g>
                    <g opacity="1" transform="matrix(1,0,0,1,0,0)">
                      <path fill="rgb(159,156,255)" fill-opacity="1"
                        d=" M279.9620056152344,144.44900512695312 C280.1180114746094,142.33999633789062 278.5360107421875,140.5030059814453 276.4259948730469,140.3459930419922 C274.3160095214844,140.19000244140625 272.4779968261719,141.7740020751953 272.3219909667969,143.88400268554688 C272.1659851074219,145.99200439453125 273.7489929199219,147.82899475097656 275.8580017089844,147.98599243164062 C277.9679870605469,148.14300537109375 279.80499267578125,146.5590057373047 279.9620056152344,144.44900512695312z">
                      </path>
                    </g>
                    <g opacity="1" transform="matrix(1,0,0,1,0,0)">
                      <path fill="rgb(159,156,255)" fill-opacity="1"
                        d=" M293.31500244140625,185.80099487304688 C293.47100830078125,183.6929931640625 291.88800048828125,181.85499572753906 289.7799987792969,181.697998046875 C287.6700134277344,181.54200744628906 285.8330078125,183.125 285.677001953125,185.23399353027344 C285.52099609375,187.343994140625 287.1029968261719,189.18299865722656 289.2120056152344,189.33900451660156 C291.3210144042969,189.4949951171875 293.15899658203125,187.91099548339844 293.31500244140625,185.80099487304688z">
                      </path>
                    </g>
                    <g opacity="1" transform="matrix(1,0,0,1,0,0)">
                      <path fill="rgb(159,156,255)" fill-opacity="1"
                        d=" M262.9259948730469,189.93899536132812 C263.0830078125,187.82899475097656 261.5,185.99200439453125 259.3900146484375,185.8350067138672 C257.281005859375,185.6790008544922 255.44200134277344,187.26300048828125 255.28599548339844,189.3719940185547 C255.1300048828125,191.48199462890625 256.7130126953125,193.31900024414062 258.822998046875,193.47500610351562 C260.9309997558594,193.63299560546875 262.7699890136719,192.0489959716797 262.9259948730469,189.93899536132812z">
                      </path>
                    </g>
                    <g opacity="1" transform="matrix(1,0,0,1,0,0)">
                      <path fill="rgb(159,156,255)" fill-opacity="1"
                        d=" M302.8420104980469,166.04299926757812 C303.0169982910156,163.67799377441406 301.2409973144531,161.61599731445312 298.875,161.4409942626953 C296.5090026855469,161.26400756835938 294.4490051269531,163.04100036621094 294.27301025390625,165.40699768066406 C294.09698486328125,167.77200317382812 295.87298583984375,169.83299255371094 298.239013671875,170.00900268554688 C300.6050109863281,170.1840057373047 302.6659851074219,168.4080047607422 302.8420104980469,166.04299926757812z">
                      </path>
                    </g>
                    <g opacity="1" transform="matrix(1,0,0,1,0,0)">
                      <path fill="rgb(159,156,255)" fill-opacity="1"
                        d=" M270.3399963378906,170.6020050048828 C270.5150146484375,168.23699951171875 268.739013671875,166.177001953125 266.3739929199219,166 C264.00799560546875,165.8249969482422 261.9460144042969,167.6009979248047 261.77099609375,169.9669952392578 C261.5950012207031,172.33299255371094 263.37200927734375,174.39300537109375 265.7380065917969,174.56700134277344 C268.1029968261719,174.74400329589844 270.1629943847656,172.968994140625 270.3399963378906,170.6020050048828z">
                      </path>
                    </g>
                    <g opacity="1" transform="matrix(1,0,0,1,0,0)">
                      <path fill="rgb(159,156,255)" fill-opacity="1"
                        d=" M290.625,209.7100067138672 C290.802001953125,207.343994140625 289.02398681640625,205.2830047607422 286.65899658203125,205.10800170898438 C284.29400634765625,204.93099975585938 282.2340087890625,206.70700073242188 282.0580139160156,209.07400512695312 C281.8819885253906,211.43899536132812 283.6570129394531,213.49899291992188 286.02301025390625,213.67599487304688 C288.38800048828125,213.8520050048828 290.4490051269531,212.0749969482422 290.625,209.7100067138672z">
                      </path>
                    </g>
                  </g>
                </g>
                <g transform="matrix(1.1392844915390015,0,0,1.1392844915390015,339.61651611328125,348.8644714355469)"
                  opacity="1" style="display: block;">
                  <g opacity="1" transform="matrix(1,0,0,1,0,0)">
                    <path fill="rgb(233,237,247)" fill-opacity="1"
                      d=" M141.92599487304688,-13.38700008392334 C141.92599487304688,-27.170000076293945 153.10000610351562,-38.34400177001953 166.88400268554688,-38.34400177001953 C180.66700744628906,-38.34400177001953 191.84100341796875,-27.170000076293945 191.84100341796875,-13.38700008392334 C191.84100341796875,0.3970000147819519 180.66700744628906,11.571000099182129 166.88400268554688,11.571000099182129 C153.10000610351562,11.571000099182129 141.92599487304688,0.3970000147819519 141.92599487304688,-13.38700008392334z">
                    </path>
                  </g>
                  <g opacity="1" transform="matrix(1,0,0,1,0,0)">
                    <path stroke-linecap="round" stroke-linejoin="round" fill-opacity="0" stroke="rgb(86,82,204)"
                      stroke-opacity="1" stroke-width="4"
                      d=" M155.17300415039062,-14.416000366210938 C155.17300415039062,-14.416000366210938 158.6929931640625,-10.895999908447266 161.2010040283203,-8.387999534606934">
                    </path>
                  </g>
                </g>
                <g transform="matrix(1,0,0,1,370.6075744628906,339.65106201171875)" opacity="1" style="display: block;">
                  <g opacity="1" transform="matrix(1,0,0,1,0,0)">
                    <g opacity="1" transform="matrix(1,0,0,1,0,0)">
                      <path stroke-linecap="round" stroke-linejoin="round" fill-opacity="0" stroke="rgb(221,226,248)"
                        stroke-opacity="1" stroke-width="2"
                        d=" M78.25800323486328,-149.22799682617188 C78.25800323486328,-149.22799682617188 47.39500045776367,-75.4729995727539 47.39500045776367,-75.4729995727539">
                      </path>
                    </g>
                    <g opacity="1" transform="matrix(1,0,0,1,0,0)">
                      <path stroke-linecap="round" stroke-linejoin="round" fill-opacity="0" stroke="rgb(221,226,248)"
                        stroke-opacity="1" stroke-width="2"
                        d=" M123.24199676513672,-149.22799682617188 C123.24199676513672,-149.22799682617188 154.10400390625,-75.4729995727539 154.10400390625,-75.4729995727539">
                      </path>
                    </g>
                    <g opacity="1" transform="matrix(1,0,0,1,0,0)">
                      <path fill="rgb(54,46,148)" fill-opacity="1"
                        d=" M70.16300201416016,-206.8769989013672 C65.41000366210938,-205.83099365234375 57.50899887084961,-208.16299438476562 57.50899887084961,-208.16299438476562 C54.97999954223633,-204.41400146484375 55.36600112915039,-180.64100646972656 62.69200134277344,-175.33099365234375 C68.70999908447266,-176.4290008544922 75.77200317382812,-177.21299743652344 75.77200317382812,-177.21299743652344 C75.77200317382812,-177.21299743652344 70.16300201416016,-206.8769989013672 70.16300201416016,-206.8769989013672z">
                      </path>
                    </g>
                    <g opacity="1" transform="matrix(1,0,0,1,0,0)">
                      <path fill="rgb(54,46,148)" fill-opacity="1"
                        d=" M131.33700561523438,-206.8769989013672 C136.08999633789062,-205.83099365234375 143.99099731445312,-208.16299438476562 143.99099731445312,-208.16299438476562 C146.52000427246094,-204.41400146484375 146.13400268554688,-180.64100646972656 138.80799865722656,-175.33099365234375 C132.7899932861328,-176.4290008544922 125.72699737548828,-177.21299743652344 125.72699737548828,-177.21299743652344 C125.72699737548828,-177.21299743652344 131.33700561523438,-206.8769989013672 131.33700561523438,-206.8769989013672z">
                      </path>
                    </g>
                  </g>
                  <g opacity="1" transform="matrix(1,0,0,1,0,0)">
                    <g opacity="1" transform="matrix(1,0,0,1,0,0)">
                      <path fill="rgb(66,62,175)" fill-opacity="1"
                        d=" M118.18599700927734,-224.3780059814453 C114.697998046875,-225.94700622558594 103.75800323486328,-226.64500427246094 100.75,-226.64500427246094 C97.74199676513672,-226.64500427246094 86.8010025024414,-225.94700622558594 83.31300354003906,-224.3780059814453 C79.82499694824219,-222.8090057373047 76.33999633789062,-215.48599243164062 75.57499694824219,-211.2220001220703 C75.57499694824219,-211.2220001220703 100.75,-213.5679931640625 100.75,-213.5679931640625 C100.75,-213.5679931640625 125.92500305175781,-211.2220001220703 125.92500305175781,-211.2220001220703 C125.16000366210938,-215.48599243164062 121.67400360107422,-222.8090057373047 118.18599700927734,-224.3780059814453z">
                      </path>
                    </g>
                    <g opacity="1" transform="matrix(1,0,0,1,0,0)">
                      <path fill="rgb(54,46,148)" fill-opacity="1"
                        d=" M82.24800109863281,-164.11199951171875 C79.21700286865234,-159.86399841308594 74.072998046875,-152.10499572753906 78.25800323486328,-149.22799682617188 C82.44400024414062,-146.3509979248047 89.15499877929688,-158.20799255371094 89.15499877929688,-158.20799255371094 C89.15499877929688,-158.20799255371094 82.24800109863281,-164.11199951171875 82.24800109863281,-164.11199951171875z">
                      </path>
                    </g>
                    <g opacity="1" transform="matrix(1,0,0,1,0,0)">
                      <path fill="rgb(54,46,148)" fill-opacity="1"
                        d=" M119.25199890136719,-164.11199951171875 C122.28299713134766,-159.86399841308594 127.427001953125,-152.10499572753906 123.24199676513672,-149.22799682617188 C119.05599975585938,-146.3509979248047 112.34500122070312,-158.20799255371094 112.34500122070312,-158.20799255371094 C112.34500122070312,-158.20799255371094 119.25199890136719,-164.11199951171875 119.25199890136719,-164.11199951171875z">
                      </path>
                    </g>
                    <g opacity="1" transform="matrix(1,0,0,1,0,0)">
                      <path fill="rgb(221,226,248)" fill-opacity="1"
                        d=" M100.75,-213.5679931640625 C95.01300048828125,-213.5679931640625 78.26200103759766,-211.99899291992188 69.54000091552734,-210.16799926757812 C69.54000091552734,-201.36199951171875 71.30000305175781,-182.44400024414062 74.58999633789062,-173.0290069580078 C79.63800048828125,-166.22900390625 94.32499694824219,-150.53599548339844 100.75,-150.53599548339844 C107.1760025024414,-150.53599548339844 121.86199951171875,-166.22900390625 126.91000366210938,-173.0290069580078 C130.1999969482422,-182.44400024414062 131.95899963378906,-201.36199951171875 131.95899963378906,-210.16799926757812 C123.23799896240234,-211.99899291992188 106.48699951171875,-213.5679931640625 100.75,-213.5679931640625z">
                      </path>
                    </g>
                    <g opacity="1" transform="matrix(1,0,0,1,0,0)">
                      <path fill="rgb(206,211,248)" fill-opacity="1"
                        d=" M126.91000366210938,-173.0290069580078 C130.19900512695312,-182.44200134277344 131.95799255371094,-201.35000610351562 131.95899963378906,-210.15899658203125 C131.93800354003906,-210.16600036621094 131.91700744628906,-210.1739959716797 131.89500427246094,-210.18099975585938 C130.16799926757812,-210.54200744628906 128.1280059814453,-210.89199829101562 125.927001953125,-211.2220001220703 C125.9260025024414,-211.2220001220703 125.9260025024414,-211.2220001220703 125.92500305175781,-211.2220001220703 C117.61900329589844,-211.2220001220703 119.31900024414062,-186.1060028076172 118.40399932861328,-175.2519989013672 C117.48799896240234,-164.3979949951172 104.93499755859375,-154.7209930419922 100.75,-150.53599548339844 C107.1760025024414,-150.53599548339844 121.86199951171875,-166.22900390625 126.91000366210938,-173.0290069580078z">
                      </path>
                    </g>
                    <g opacity="1" transform="matrix(1,0,0,1,0,0)">
                      <path fill="rgb(66,62,175)" fill-opacity="1"
                        d=" M102.18800354003906,-197.13499450683594 C103.89099884033203,-197.13499450683594 105.45800018310547,-196.55999755859375 106.71700286865234,-195.60299682617188 C105.34700012207031,-197.4040069580078 103.18699645996094,-198.572998046875 100.75,-198.572998046875 C96.60900115966797,-198.572998046875 93.25199890136719,-195.2169952392578 93.25199890136719,-191.0749969482422 C93.25199890136719,-188.63699340820312 94.4209976196289,-186.47900390625 96.22200012207031,-185.10899353027344 C95.26499938964844,-186.3679962158203 94.69000244140625,-187.93299865722656 94.69000244140625,-189.63699340820312 C94.69000244140625,-193.7790069580078 98.0469970703125,-197.13499450683594 102.18800354003906,-197.13499450683594z">
                      </path>
                    </g>
                    <g opacity="1" transform="matrix(1,0,0,1,0,0)">
                      <path fill="rgb(107,103,233)" fill-opacity="1"
                        d=" M108.24800109863281,-191.0749969482422 C108.24800109863281,-192.7790069580078 107.67400360107422,-194.343994140625 106.71700286865234,-195.60299682617188 C105.45800018310547,-196.55999755859375 103.89099884033203,-197.13499450683594 102.18800354003906,-197.13499450683594 C98.0469970703125,-197.13499450683594 94.69000244140625,-193.7790069580078 94.69000244140625,-189.63699340820312 C94.69000244140625,-187.93299865722656 95.26499938964844,-186.3679962158203 96.22200012207031,-185.10899353027344 C97.48100280761719,-184.15199279785156 99.0469970703125,-183.57699584960938 100.75,-183.57699584960938 C104.89099884033203,-183.57699584960938 108.24800109863281,-186.9340057373047 108.24800109863281,-191.0749969482422z">
                      </path>
                    </g>
                    <g opacity="1" transform="matrix(1,0,0,1,0,0)">
                      <path fill="rgb(255,208,62)" fill-opacity="1"
                        d=" M98.13500213623047,-191.0749969482422 C98.13500213623047,-192.52000427246094 99.30599975585938,-193.6909942626953 100.75,-193.6909942626953 C102.19400024414062,-193.6909942626953 103.36499786376953,-192.52000427246094 103.36499786376953,-191.0749969482422 C103.36499786376953,-189.63099670410156 102.19400024414062,-188.4600067138672 100.75,-188.4600067138672 C99.30599975585938,-188.4600067138672 98.13500213623047,-189.63099670410156 98.13500213623047,-191.0749969482422z">
                      </path>
                    </g>
                  </g>
                  <g opacity="1" transform="matrix(1,0,0,1,0,0)">
                    <g opacity="1" transform="matrix(1,0,0,1,0,0)">
                      <path fill="rgb(206,211,248)" fill-opacity="1"
                        d=" M63.0880012512207,-172.24400329589844 C63.0880012512207,-178.1719970703125 55.590999603271484,-195.08599853515625 57.50899887084961,-208.16299438476562 C55.76499938964844,-214.61399841308594 51.75400161743164,-216.00900268554688 47.22100067138672,-217.4040069580078 C42.6879997253418,-218.7989959716797 -36.691001892089844,-240.7689971923828 -36.691001892089844,-240.7689971923828 C-36.691001892089844,-237.89199829101562 -36.691001892089844,-233.96800231933594 -36.691001892089844,-233.96800231933594 C-36.691001892089844,-233.96800231933594 63.0880012512207,-172.24400329589844 63.0880012512207,-172.24400329589844z">
                      </path>
                    </g>
                    <g opacity="1" transform="matrix(1,0,0,1,0,0)">
                      <path fill="rgb(187,192,230)" fill-opacity="1"
                        d=" M57.49700164794922,-198.5290069580078 C43.948001861572266,-207.39999389648438 27.770999908447266,-199.6009979248047 21.239999771118164,-203.3679962158203 C14.4399995803833,-207.29100036621094 -26.099000930786133,-231.87600708007812 -35.11600112915039,-237.3179931640625 C-35.11600112915039,-237.3179931640625 -36.691001892089844,-237.9969940185547 -36.691001892089844,-237.9969940185547 C-36.691001892089844,-235.8699951171875 -36.691001892089844,-233.96800231933594 -36.691001892089844,-233.96800231933594 C-36.691001892089844,-233.96800231933594 63.0880012512207,-172.24400329589844 63.0880012512207,-172.24400329589844 C63.0880012512207,-176.7830047607422 58.69599914550781,-187.76199340820312 57.49700164794922,-198.5290069580078z">
                      </path>
                    </g>
                  </g>
                  <g opacity="1" transform="matrix(1,0,0,1,0,0)">
                    <g opacity="1" transform="matrix(1,0,0,1,0,0)">
                      <path fill="rgb(221,226,248)" fill-opacity="1"
                        d=" M-35.604000091552734,-233.41299438476562 C-35.888999938964844,-231.12899780273438 -38.00600051879883,-229.26100158691406 -40.30799865722656,-229.26100158691406 C-40.30799865722656,-229.26100158691406 -55.30400085449219,-229.26100158691406 -55.30400085449219,-229.26100158691406 C-57.60599899291992,-229.26100158691406 -59.72200012207031,-231.12899780273438 -60.00699996948242,-233.41299438476562 C-60.00699996948242,-233.41299438476562 -61.0620002746582,-241.8470001220703 -61.0620002746582,-241.8470001220703 C-61.34700012207031,-244.13099670410156 -59.698001861572266,-245.99899291992188 -57.395999908447266,-245.99899291992188 C-57.395999908447266,-245.99899291992188 -38.21500015258789,-245.99899291992188 -38.21500015258789,-245.99899291992188 C-35.91299819946289,-245.99899291992188 -34.26499938964844,-244.13099670410156 -34.54999923706055,-241.8470001220703 C-34.54999923706055,-241.8470001220703 -35.604000091552734,-233.41299438476562 -35.604000091552734,-233.41299438476562z">
                      </path>
                    </g>
                    <g opacity="1" transform="matrix(1,0,0,1,0,0)">
                      <path fill="rgb(206,211,248)" fill-opacity="1"
                        d=" M-35.604000091552734,-233.41299438476562 C-35.604000091552734,-233.41299438476562 -34.54999923706055,-241.8470001220703 -34.54999923706055,-241.8470001220703 C-34.2869987487793,-243.9530029296875 -35.676998138427734,-245.68699645996094 -37.69900131225586,-245.94700622558594 C-39.54899978637695,-245.95899963378906 -37.672000885009766,-244.98800659179688 -37.672000885009766,-242.4029998779297 C-37.672000885009766,-240.2449951171875 -37.54100036621094,-235.3419952392578 -41.202999114990234,-234.03399658203125 C-44.8650016784668,-232.7259979248047 -48.33000183105469,-230.76499938964844 -47.80699920654297,-229.26100158691406 C-47.80699920654297,-229.26100158691406 -40.30799865722656,-229.26100158691406 -40.30799865722656,-229.26100158691406 C-38.00600051879883,-229.26100158691406 -35.888999938964844,-231.12899780273438 -35.604000091552734,-233.41299438476562z">
                      </path>
                    </g>
                    <g opacity="1" transform="matrix(1,0,0,1,0,0)">
                      <path fill="rgb(86,82,204)" fill-opacity="1"
                        d=" M-40.30799865722656,-223.94200134277344 C-40.30799865722656,-223.94200134277344 -55.30400085449219,-223.94200134277344 -55.30400085449219,-223.94200134277344 C-55.30400085449219,-223.94200134277344 -55.30400085449219,-229.26100158691406 -55.30400085449219,-229.26100158691406 C-55.30400085449219,-229.26100158691406 -40.30799865722656,-229.26100158691406 -40.30799865722656,-229.26100158691406 C-40.30799865722656,-229.26100158691406 -40.30799865722656,-223.94200134277344 -40.30799865722656,-223.94200134277344z">
                      </path>
                    </g>
                    <g opacity="1" transform="matrix(1,0,0,1,0,0)">
                      <path fill="rgb(54,46,148)" fill-opacity="1"
                        d=" M-55.30400085449219,-223.94200134277344 C-55.30400085449219,-223.94200134277344 -47.805999755859375,-218.7989959716797 -47.805999755859375,-218.7989959716797 C-47.805999755859375,-218.7989959716797 -40.30799865722656,-223.94200134277344 -40.30799865722656,-223.94200134277344 C-40.30799865722656,-223.94200134277344 -55.30400085449219,-223.94200134277344 -55.30400085449219,-223.94200134277344z">
                      </path>
                    </g>
                  </g>
                  <g opacity="1" transform="matrix(1,0,0,1,0,0)">
                    <g opacity="1" transform="matrix(1,0,0,1,0,0)">
                      <path fill="rgb(206,211,248)" fill-opacity="1"
                        d=" M138.41200256347656,-172.24400329589844 C138.41200256347656,-178.1719970703125 145.90899658203125,-195.08599853515625 143.99099731445312,-208.16299438476562 C145.73500061035156,-214.61399841308594 149.74600219726562,-216.00900268554688 154.2790069580078,-217.4040069580078 C158.81199645996094,-218.7989959716797 238.1909942626953,-240.7689971923828 238.1909942626953,-240.7689971923828 C238.1909942626953,-237.89199829101562 238.1909942626953,-233.96800231933594 238.1909942626953,-233.96800231933594 C238.1909942626953,-233.96800231933594 138.41200256347656,-172.24400329589844 138.41200256347656,-172.24400329589844z">
                      </path>
                    </g>
                    <g opacity="1" transform="matrix(1,0,0,1,0,0)">
                      <path fill="rgb(187,192,230)" fill-opacity="1"
                        d=" M219.62100219726562,-225.72999572753906 C209.552001953125,-219.58299255371094 144.16799926757812,-180.50599670410156 139.48699951171875,-178.2519989013672 C139.48699951171875,-178.2519989013672 139.48699951171875,-178.2519989013672 139.48699951171875,-178.2519989013672 C138.85000610351562,-175.75 138.41200256347656,-173.6750030517578 138.41200256347656,-172.24400329589844 C138.41200256347656,-172.24400329589844 238.1909942626953,-233.96800231933594 238.1909942626953,-233.96800231933594 C238.1909942626953,-233.96800231933594 238.1909942626953,-237.89199829101562 238.1909942626953,-240.7689971923828 C238.1909942626953,-240.7689971923828 234.93600463867188,-239.8679962158203 229.70899963378906,-238.4199981689453 C227.50900268554688,-232.82899475097656 228.55099487304688,-231.17999267578125 219.62100219726562,-225.72999572753906z">
                      </path>
                    </g>
                  </g>
                  <g opacity="1" transform="matrix(1,0,0,1,0,0)">
                    <g opacity="1" transform="matrix(1,0,0,1,0,0)">
                      <path fill="rgb(221,226,248)" fill-opacity="1"
                        d=" M261.50799560546875,-233.41299438476562 C261.2229919433594,-231.12899780273438 259.1059875488281,-229.26100158691406 256.8039855957031,-229.26100158691406 C256.8039855957031,-229.26100158691406 241.80799865722656,-229.26100158691406 241.80799865722656,-229.26100158691406 C239.50599670410156,-229.26100158691406 237.38800048828125,-231.12899780273438 237.10400390625,-233.41299438476562 C237.10400390625,-233.41299438476562 236.0500030517578,-241.8470001220703 236.0500030517578,-241.8470001220703 C235.76499938964844,-244.13099670410156 237.41400146484375,-245.99899291992188 239.71600341796875,-245.99899291992188 C239.71600341796875,-245.99899291992188 258.89599609375,-245.99899291992188 258.89599609375,-245.99899291992188 C261.1969909667969,-245.99899291992188 262.84600830078125,-244.13099670410156 262.5610046386719,-241.8470001220703 C262.5610046386719,-241.8470001220703 261.50799560546875,-233.41299438476562 261.50799560546875,-233.41299438476562z">
                      </path>
                    </g>
                    <g opacity="1" transform="matrix(1,0,0,1,0,0)">
                      <path fill="rgb(206,211,248)" fill-opacity="1"
                        d=" M261.50799560546875,-233.41299438476562 C261.50799560546875,-233.41299438476562 262.5610046386719,-241.8470001220703 262.5610046386719,-241.8470001220703 C262.8240051269531,-243.9530029296875 261.4339904785156,-245.68699645996094 259.4129943847656,-245.94700622558594 C257.56201171875,-245.95899963378906 259.4389953613281,-244.98800659179688 259.4389953613281,-242.4029998779297 C259.4389953613281,-240.2449951171875 259.57000732421875,-235.3419952392578 255.9080047607422,-234.03399658203125 C252.2469940185547,-232.7259979248047 248.78199768066406,-230.76499938964844 249.30499267578125,-229.26100158691406 C249.30499267578125,-229.26100158691406 256.8039855957031,-229.26100158691406 256.8039855957031,-229.26100158691406 C259.1059875488281,-229.26100158691406 261.2229919433594,-231.12899780273438 261.50799560546875,-233.41299438476562z">
                      </path>
                    </g>
                    <g opacity="1" transform="matrix(1,0,0,1,0,0)">
                      <path fill="rgb(86,82,204)" fill-opacity="1"
                        d=" M256.8039855957031,-223.94200134277344 C256.8039855957031,-223.94200134277344 241.80799865722656,-223.94200134277344 241.80799865722656,-223.94200134277344 C241.80799865722656,-223.94200134277344 241.80799865722656,-229.26100158691406 241.80799865722656,-229.26100158691406 C241.80799865722656,-229.26100158691406 256.8039855957031,-229.26100158691406 256.8039855957031,-229.26100158691406 C256.8039855957031,-229.26100158691406 256.8039855957031,-223.94200134277344 256.8039855957031,-223.94200134277344z">
                      </path>
                    </g>
                    <g opacity="1" transform="matrix(1,0,0,1,0,0)">
                      <path fill="rgb(54,46,148)" fill-opacity="1"
                        d=" M241.80799865722656,-223.94200134277344 C241.80799865722656,-223.94200134277344 249.30599975585938,-218.7989959716797 249.30599975585938,-218.7989959716797 C249.30599975585938,-218.7989959716797 256.8039855957031,-223.94200134277344 256.8039855957031,-223.94200134277344 C256.8039855957031,-223.94200134277344 241.80799865722656,-223.94200134277344 241.80799865722656,-223.94200134277344z">
                      </path>
                    </g>
                  </g>
                  <g opacity="1" transform="matrix(1,0,0,1,0,0)">
                    <g opacity="1" transform="matrix(1,0,0,1,0,0)">
                      <path stroke-linecap="butt" stroke-linejoin="miter" fill-opacity="0" stroke-miterlimit="4"
                        stroke="rgb(54,46,148)" stroke-opacity="1" stroke-width="2"
                        d=" M249.30599975585938,-245.99899291992188 C249.30599975585938,-245.99899291992188 249.30599975585938,-258.0299987792969 249.30599975585938,-258.0299987792969">
                      </path>
                    </g>
                    <g opacity="1" transform="matrix(1,0,0,1,0,0)">
                      <path fill="rgb(221,226,248)" fill-opacity="1"
                        d=" M330.8241271972656,-259.9949951171875 C330.8241271972656,-259.9949951171875 256.6289978027344,-259.989013671875 256.6289978027344,-259.989013671875 C256.6289978027344,-259.989013671875 256.6289978027344,-256.0660095214844 256.6289978027344,-256.0660095214844 C256.6289978027344,-256.0660095214844 330.8241271972656,-256.0719909667969 330.8241271972656,-256.0719909667969 C330.8241271972656,-256.0719909667969 330.8241271972656,-259.9949951171875 330.8241271972656,-259.9949951171875z">
                      </path>
                    </g>
                    <g opacity="1" transform="matrix(1,0,0,1,0,0)">
                      <path fill="rgb(255,255,255)" fill-opacity="1"
                        d=" M241.98199462890625,-259.99200439453125 C241.98199462890625,-259.99200439453125 167.78688049316406,-259.9859924316406 167.78688049316406,-259.9859924316406 C167.78688049316406,-259.9859924316406 167.78688049316406,-256.06298828125 167.78688049316406,-256.06298828125 C167.78688049316406,-256.06298828125 241.98199462890625,-256.0690002441406 241.98199462890625,-256.0690002441406 C241.98199462890625,-256.0690002441406 241.98199462890625,-259.99200439453125 241.98199462890625,-259.99200439453125z">
                      </path>
                    </g>
                    <g opacity="1" transform="matrix(1,0,0,1,0,0)">
                      <path fill="rgb(54,46,148)" fill-opacity="1"
                        d=" M241.98199462890625,-259.99200439453125 C241.98199462890625,-259.99200439453125 256.6289978027344,-259.99200439453125 256.6289978027344,-259.99200439453125 C257.7120056152344,-259.99200439453125 258.5899963378906,-259.1130065917969 258.5899963378906,-258.0299987792969 C258.5899963378906,-256.9469909667969 257.7120056152344,-256.0690002441406 256.6289978027344,-256.0690002441406 C256.6289978027344,-256.0690002441406 241.98199462890625,-256.0690002441406 241.98199462890625,-256.0690002441406 C240.8990020751953,-256.0690002441406 240.02099609375,-256.9469909667969 240.02099609375,-258.0299987792969 C240.02099609375,-259.1130065917969 240.8990020751953,-259.99200439453125 241.98199462890625,-259.99200439453125z">
                      </path>
                    </g>
                  </g>
                  <g opacity="1" transform="matrix(1,0,0,1,-297,0)">
                    <g opacity="1" transform="matrix(1,0,0,1,0,0)">
                      <path stroke-linecap="butt" stroke-linejoin="miter" fill-opacity="0" stroke-miterlimit="4"
                        stroke="rgb(54,46,148)" stroke-opacity="1" stroke-width="2"
                        d=" M249.30599975585938,-245.99899291992188 C249.30599975585938,-245.99899291992188 249.30599975585938,-258.0299987792969 249.30599975585938,-258.0299987792969">
                      </path>
                    </g>
                    <g opacity="1" transform="matrix(1,0,0,1,0,0)">
                      <path fill="rgb(221,226,248)" fill-opacity="1"
                        d=" M330.8241271972656,-259.9949951171875 C330.8241271972656,-259.9949951171875 256.6289978027344,-259.989013671875 256.6289978027344,-259.989013671875 C256.6289978027344,-259.989013671875 256.6289978027344,-256.0660095214844 256.6289978027344,-256.0660095214844 C256.6289978027344,-256.0660095214844 330.8241271972656,-256.0719909667969 330.8241271972656,-256.0719909667969 C330.8241271972656,-256.0719909667969 330.8241271972656,-259.9949951171875 330.8241271972656,-259.9949951171875z">
                      </path>
                    </g>
                    <g opacity="1" transform="matrix(1,0,0,1,0,0)">
                      <path fill="rgb(255,255,255)" fill-opacity="1"
                        d=" M241.98199462890625,-259.99200439453125 C241.98199462890625,-259.99200439453125 167.78688049316406,-259.9859924316406 167.78688049316406,-259.9859924316406 C167.78688049316406,-259.9859924316406 167.78688049316406,-256.06298828125 167.78688049316406,-256.06298828125 C167.78688049316406,-256.06298828125 241.98199462890625,-256.0690002441406 241.98199462890625,-256.0690002441406 C241.98199462890625,-256.0690002441406 241.98199462890625,-259.99200439453125 241.98199462890625,-259.99200439453125z">
                      </path>
                    </g>
                    <g opacity="1" transform="matrix(1,0,0,1,0,0)">
                      <path fill="rgb(54,46,148)" fill-opacity="1"
                        d=" M241.98199462890625,-259.99200439453125 C241.98199462890625,-259.99200439453125 256.6289978027344,-259.99200439453125 256.6289978027344,-259.99200439453125 C257.7120056152344,-259.99200439453125 258.5899963378906,-259.1130065917969 258.5899963378906,-258.0299987792969 C258.5899963378906,-256.9469909667969 257.7120056152344,-256.0690002441406 256.6289978027344,-256.0690002441406 C256.6289978027344,-256.0690002441406 241.98199462890625,-256.0690002441406 241.98199462890625,-256.0690002441406 C240.8990020751953,-256.0690002441406 240.02099609375,-256.9469909667969 240.02099609375,-258.0299987792969 C240.02099609375,-259.1130065917969 240.8990020751953,-259.99200439453125 241.98199462890625,-259.99200439453125z">
                      </path>
                    </g>
                  </g>
                </g>
                <g transform="matrix(1,0,0,1,370.6075744628906,339.65106201171875)" opacity="1" style="display: block;">
                  <g opacity="1" transform="matrix(1,0,0,1,0,0)">
                    <path fill="rgb(252,186,6)" fill-opacity="1"
                      d=" M154.10400390625,-22.118000030517578 C154.10400390625,-22.118000030517578 47.39500045776367,-22.118000030517578 47.39500045776367,-22.118000030517578 C47.39500045776367,-22.118000030517578 47.39500045776367,-75.4729995727539 47.39500045776367,-75.4729995727539 C47.39500045776367,-75.4729995727539 154.10400390625,-75.4729995727539 154.10400390625,-75.4729995727539 C154.10400390625,-75.4729995727539 154.10400390625,-22.118000030517578 154.10400390625,-22.118000030517578z">
                    </path>
                  </g>
                  <g opacity="1" transform="matrix(1,0,0,1,0,0)">
                    <path fill="rgb(237,159,0)" fill-opacity="1"
                      d=" M115.37100219726562,-75.4729995727539 C115.37100219726562,-75.4729995727539 62.016998291015625,-22.118000030517578 62.016998291015625,-22.118000030517578 C62.016998291015625,-22.118000030517578 67.93499755859375,-22.118000030517578 67.93499755859375,-22.118000030517578 C67.93499755859375,-22.118000030517578 121.29000091552734,-75.4729995727539 121.29000091552734,-75.4729995727539 C121.29000091552734,-75.4729995727539 115.37100219726562,-75.4729995727539 115.37100219726562,-75.4729995727539z M132.97900390625,-75.4729995727539 C132.97900390625,-75.4729995727539 79.625,-22.118000030517578 79.625,-22.118000030517578 C79.625,-22.118000030517578 85.54399871826172,-22.118000030517578 85.54399871826172,-22.118000030517578 C85.54399871826172,-22.118000030517578 138.8979949951172,-75.4729995727539 138.8979949951172,-75.4729995727539 C138.8979949951172,-75.4729995727539 132.97900390625,-75.4729995727539 132.97900390625,-75.4729995727539z M62.54600143432617,-75.4729995727539 C62.54600143432617,-75.4729995727539 47.39500045776367,-60.321998596191406 47.39500045776367,-60.321998596191406 C47.39500045776367,-60.321998596191406 47.39500045776367,-54.402000427246094 47.39500045776367,-54.402000427246094 C47.39500045776367,-54.402000427246094 68.46600341796875,-75.4729995727539 68.46600341796875,-75.4729995727539 C68.46600341796875,-75.4729995727539 62.54600143432617,-75.4729995727539 62.54600143432617,-75.4729995727539z M80.15399932861328,-75.4729995727539 C80.15399932861328,-75.4729995727539 47.39500045776367,-42.7130012512207 47.39500045776367,-42.7130012512207 C47.39500045776367,-42.7130012512207 47.39500045776367,-36.79399871826172 47.39500045776367,-36.79399871826172 C47.39500045776367,-36.79399871826172 86.0739974975586,-75.4729995727539 86.0739974975586,-75.4729995727539 C86.0739974975586,-75.4729995727539 80.15399932861328,-75.4729995727539 80.15399932861328,-75.4729995727539z M97.76300048828125,-75.4729995727539 C97.76300048828125,-75.4729995727539 47.39500045776367,-25.104000091552734 47.39500045776367,-25.104000091552734 C47.39500045776367,-25.104000091552734 47.39500045776367,-22.118000030517578 47.39500045776367,-22.118000030517578 C47.39500045776367,-22.118000030517578 50.32699966430664,-22.118000030517578 50.32699966430664,-22.118000030517578 C50.32699966430664,-22.118000030517578 103.68199920654297,-75.4729995727539 103.68199920654297,-75.4729995727539 C103.68199920654297,-75.4729995727539 97.76300048828125,-75.4729995727539 97.76300048828125,-75.4729995727539z M154.10400390625,-22.118000030517578 C154.10400390625,-22.118000030517578 154.10400390625,-26.165000915527344 154.10400390625,-26.165000915527344 C154.10400390625,-26.165000915527344 150.0590057373047,-22.118000030517578 150.0590057373047,-22.118000030517578 C150.0590057373047,-22.118000030517578 154.10400390625,-22.118000030517578 154.10400390625,-22.118000030517578z M150.58700561523438,-75.4729995727539 C150.58700561523438,-75.4729995727539 97.23300170898438,-22.118000030517578 97.23300170898438,-22.118000030517578 C97.23300170898438,-22.118000030517578 103.1520004272461,-22.118000030517578 103.1520004272461,-22.118000030517578 C103.1520004272461,-22.118000030517578 154.10400390625,-73.0719985961914 154.10400390625,-73.0719985961914 C154.10400390625,-73.0719985961914 154.10400390625,-75.4729995727539 154.10400390625,-75.4729995727539 C154.10400390625,-75.4729995727539 150.58700561523438,-75.4729995727539 150.58700561523438,-75.4729995727539z M138.3679962158203,-22.118000030517578 C138.3679962158203,-22.118000030517578 154.10400390625,-37.854000091552734 154.10400390625,-37.854000091552734 C154.10400390625,-37.854000091552734 154.10400390625,-43.77299880981445 154.10400390625,-43.77299880981445 C154.10400390625,-43.77299880981445 132.4499969482422,-22.118000030517578 132.4499969482422,-22.118000030517578 C132.4499969482422,-22.118000030517578 138.3679962158203,-22.118000030517578 138.3679962158203,-22.118000030517578z M120.76000213623047,-22.118000030517578 C120.76000213623047,-22.118000030517578 154.10400390625,-55.4630012512207 154.10400390625,-55.4630012512207 C154.10400390625,-55.4630012512207 154.10400390625,-61.38199996948242 154.10400390625,-61.38199996948242 C154.10400390625,-61.38199996948242 114.84200286865234,-22.118000030517578 114.84200286865234,-22.118000030517578 C114.84200286865234,-22.118000030517578 120.76000213623047,-22.118000030517578 120.76000213623047,-22.118000030517578z">
                    </path>
                  </g>
                </g>
                <g transform="matrix(1.1363290548324585,0.05346975475549698,-0.05346975475549698,1.1363290548324585,372.9041748046875,360.1161804199219)"
                  opacity="1" style="display: block;">
                  <g opacity="1" transform="matrix(1,0,0,1,0,0)">
                    <path fill="rgb(252,186,6)" fill-opacity="1"
                      d=" M-124.9749984741211,-63.91299819946289 C-118.25499725341797,-73.0739974975586 -114.41899871826172,-83.60199737548828 -114.41899871826172,-94.80799865722656 C-114.41899871826172,-130.1540069580078 -152.47500610351562,-158.80799865722656 -199.41900634765625,-158.80799865722656 C-246.36300659179688,-158.80799865722656 -284.41900634765625,-130.1540069580078 -284.41900634765625,-94.80799865722656 C-284.41900634765625,-59.46200180053711 -246.36300659179688,-30.808000564575195 -199.41900634765625,-30.808000564575195 C-173.5,-28.833999633789062 -119.38800048828125,-39.19599914550781 -96.66699981689453,-56.83300018310547 C-108.23799896240234,-56.83300018310547 -119.05000305175781,-59.8489990234375 -124.9749984741211,-63.91299819946289z">
                    </path>
                  </g>
                  <g opacity="1" transform="matrix(1,0,0,1,0,0)">
                    <path fill="rgb(255,255,255)" fill-opacity="1"
                      d=" M-222.41600036621094,-77.81999969482422 C-222.41600036621094,-77.81999969482422 -199.41900634765625,-54.823001861572266 -199.41900634765625,-54.823001861572266 C-199.41900634765625,-54.823001861572266 -176.42100524902344,-77.81999969482422 -176.42100524902344,-77.81999969482422 C-163.718994140625,-90.52300262451172 -163.71600341796875,-111.12000274658203 -176.4199981689453,-123.81700134277344 C-189.1199951171875,-136.52000427246094 -209.71400451660156,-136.51600646972656 -222.41600036621094,-123.81700134277344 C-235.1199951171875,-111.11399841308594 -235.12100219726562,-90.52300262451172 -222.41600036621094,-77.81999969482422z M-211.1840057373047,-100.81600189208984 C-211.18499755859375,-107.31900024414062 -205.91799926757812,-112.58599853515625 -199.41900634765625,-112.58599853515625 C-192.92100524902344,-112.58599853515625 -187.65199279785156,-107.31900024414062 -187.6529998779297,-100.81600189208984 C-187.6540069580078,-94.31999969482422 -192.9199981689453,-89.0510025024414 -199.41900634765625,-89.0510025024414 C-205.91700744628906,-89.0510025024414 -211.18499755859375,-94.31999969482422 -211.1840057373047,-100.81600189208984z">
                    </path>
                  </g>
                </g>
                <g transform="matrix(1.9404000043869019,0,0,1.9404000043869019,327.0548095703125,153.4117889404297)"
                  opacity="1" style="display: block;">
                  <g opacity="1" transform="matrix(1,0,0,1,0,0)">
                    <g opacity="1" transform="matrix(1,0,0,1,0,0)">
                      <path fill="rgb(242,189,66)" fill-opacity="1"
                        d=" M48.819000244140625,118.8740005493164 C38.5629997253418,111.5479965209961 14.630999565124512,112.5250015258789 -0.5740000009536743,113.01300048828125 C-15.779000282287598,112.5250015258789 -39.709999084472656,111.5479965209961 -49.965999603271484,118.8740005493164 C-54.96900177001953,122.447998046875 -50.27199935913086,149.3300018310547 -45.082000732421875,151.71800231933594 C-43.652000427246094,174.1320037841797 -62.66400146484375,219.97000122070312 -62.66400146484375,219.97000122070312 C-62.66400146484375,219.97000122070312 -28.836000442504883,245.56300354003906 -0.5740000009536743,245.56300354003906 C27.687999725341797,245.56300354003906 61.516998291015625,219.97000122070312 61.516998291015625,219.97000122070312 C61.516998291015625,219.97000122070312 43.36899948120117,175.3070068359375 43.935001373291016,151.71800231933594 C50.07500076293945,148.89199829101562 53.744998931884766,122.39199829101562 48.819000244140625,118.8740005493164z">
                      </path>
                    </g>
                    <g opacity="1"
                      transform="matrix(0.9976970553398132,-0.06782796233892441,0.06782796233892441,0.9976970553398132,-8.15673828125,-2.2355804443359375)">
                      <g opacity="1"
                        transform="matrix(0.9046503305435181,-0.42615458369255066,0.42615458369255066,0.9046503305435181,-81.79541015625,-12.575454711914062)">
                        <path fill="rgb(235,206,195)" fill-opacity="1"
                          d=" M-78.677001953125,171.37600708007812 C-79.43399810791016,174.54100036621094 -78.88300323486328,178.41700744628906 -77.52400207519531,182.58599853515625 C-72.1709976196289,199.00399780273438 -54.27799987792969,219.97000122070312 -54.27799987792969,219.97000122070312 C-54.27799987792969,219.97000122070312 -41.75,228.8280029296875 -39.375,219.18600463867188 C-39.375,219.18600463867188 -56.98699951171875,176.3820037841797 -56.98699951171875,176.3820037841797 C-56.98699951171875,176.3820037841797 -59.34199905395508,168.98199462890625 -64.87300109863281,166.75399780273438 C-69.73799896240234,164.79400634765625 -77.79399871826172,167.6840057373047 -78.677001953125,171.37600708007812z">
                        </path>
                      </g>
                      <g opacity="1" transform="matrix(1,0,0,1,0,0)">
                        <path fill="rgb(242,189,66)" fill-opacity="1"
                          d=" M-30.628000259399414,115.83499908447266 C-37.5,111.9530029296875 -46.25,116.5790023803711 -49.965999603271484,118.8740005493164 C-55.196998596191406,122.1050033569336 -61.277000427246094,131.7689971923828 -66.61100006103516,141.7220001220703 C-68.71099853515625,145.64199829101562 -50.27199935913086,149.3300018310547 -45.082000732421875,151.71800231933594 C-37.5,140.3280029296875 -20.016000747680664,121.83000183105469 -30.628000259399414,115.83499908447266z">
                        </path>
                      </g>
                      <g opacity="1" transform="matrix(1,0,0,1,0,0)">
                        <path fill="rgb(235,206,195)" fill-opacity="1"
                          d=" M-45.082000732421875,151.71800231933594 C-45.082000732421875,151.71800231933594 -60.33700180053711,144.71800231933594 -66.61100006103516,141.7220001220703 C-72.10600280761719,152.05499267578125 -76.79100036621094,163.48800659179688 -78.677001953125,171.37600708007812 C-82.41300201416016,187.00399780273438 -68,189.8280029296875 -64.52799987792969,187.22000122070312 C-61.00899887084961,184.5760040283203 -56.98699951171875,176.3820037841797 -56.98699951171875,176.3820037841797 C-56.98699951171875,176.3820037841797 -48.13399887084961,157.33399963378906 -45.082000732421875,151.71800231933594z">
                        </path>
                      </g>
                    </g>
                    <g opacity="1"
                      transform="matrix(0.9905532002449036,0.13712915778160095,-0.13712915778160095,0.9905532002449036,16.9610538482666,-4.2049713134765625)">
                      <g opacity="1"
                        transform="matrix(0.9321149587631226,0.36216259002685547,-0.36216259002685547,0.9321149587631226,68.50393676757812,-12.464263916015625)">
                        <path fill="rgb(235,206,195)" fill-opacity="1"
                          d=" M65.71399688720703,167.2220001220703 C70.53700256347656,166.10899353027344 76.53700256347656,168.0800018310547 78.4229965209961,175.96800231933594 C82.15899658203125,191.5959930419922 53.13100051879883,219.97000122070312 53.13100051879883,219.97000122070312 C53.13100051879883,219.97000122070312 39.25,226.8280029296875 35.97700119018555,217.18600463867188 C35.97700119018555,217.18600463867188 55.8390007019043,176.3820037841797 55.8390007019043,176.3820037841797 C55.8390007019043,176.3820037841797 59.768001556396484,168.593994140625 65.71399688720703,167.2220001220703z">
                        </path>
                      </g>
                      <g opacity="1" transform="matrix(1,0,0,1,0,0)">
                        <path fill="rgb(242,189,66)" fill-opacity="1"
                          d=" M65.46399688720703,141.7220001220703 C60.191001892089844,131.95599365234375 53.619998931884766,122.39199829101562 48.694000244140625,118.8740005493164 C45.36899948120117,116.4990005493164 38.5,112.8280029296875 32.54499816894531,117.06700134277344 C24.033000946044922,123.125 35.75,135.3280029296875 43.935001373291016,151.71800231933594 C50.07500076293945,148.89199829101562 67.00900268554688,144.58299255371094 65.46399688720703,141.7220001220703z">
                        </path>
                      </g>
                      <g opacity="1" transform="matrix(1,0,0,1,0,0)">
                        <path fill="rgb(235,206,195)" fill-opacity="1"
                          d=" M43.935001373291016,151.71800231933594 C43.935001373291016,151.71800231933594 59.189998626708984,144.71800231933594 65.46399688720703,141.7220001220703 C70.95999908447266,152.05499267578125 75.64399719238281,163.48800659179688 77.52999877929688,171.37600708007812 C81.26599884033203,187.00399780273438 72.25299835205078,189.38800048828125 65.88099670410156,187.97000122070312 C58.5,186.3280029296875 55.8390007019043,176.3820037841797 55.8390007019043,176.3820037841797 C55.8390007019043,176.3820037841797 46.98699951171875,157.33399963378906 43.935001373291016,151.71800231933594z">
                        </path>
                      </g>
                    </g>
                  </g>
                  <g opacity="1"
                    transform="matrix(0.9974698424339294,-0.07109081000089645,0.07109081000089645,0.9974698424339294,-8.285242080688477,0.205902099609375)">
                    <g opacity="1" transform="matrix(1,0,0,1,0,0)">
                      <path fill="rgb(221,187,177)" fill-opacity="1"
                        d=" M8.595999717712402,100.31500244140625 C7.125,96.48300170898438 2.996000051498413,95.31500244140625 -0.4490000009536743,95.31500244140625 C-3.9670000076293945,95.31500244140625 -7.875,96.60800170898438 -9.743000030517578,100.31500244140625 C-10.9399995803833,106.41999816894531 -13.63599967956543,112.5770034790039 -15.909000396728516,114.82099914550781 C-13.482999801635742,121.20899963378906 -6.249000072479248,121.80400085449219 -0.8659999966621399,122.03600311279297 C4.894000053405762,122.28500366210938 11.798999786376953,120.98999786376953 14.225000381469727,114.60199737548828 C11.951000213623047,112.35800170898438 9.793000221252441,106.41999816894531 8.595999717712402,100.31500244140625z">
                      </path>
                    </g>
                    <g opacity="1"
                      transform="matrix(0.9972155690193176,-0.07457318902015686,0.07457318902015686,0.9972155690193176,-7.3855299949646,0.255126953125)">
                      <g opacity="1" transform="matrix(1,0,0,1,0,0)">
                        <path fill="rgb(235,206,195)" fill-opacity="1"
                          d=" M-23.363000869750977,77.88099670410156 C-23.363000869750977,67.83699798583984 -22.285999298095703,55.590999603271484 -15.906999588012695,50.3129997253418 C-12.489999771118164,47.486000061035156 -7,46.59199905395508 -0.5740000009536743,46.59199905395508 C5.933000087738037,46.59199905395508 11.609000205993652,47.67499923706055 15.107000350952148,50.89799880981445 C20.93600082397461,56.27000045776367 22.21500015258789,68.24099731445312 22.21500015258789,77.88099670410156 C22.21500015258789,93.30599975585938 12.01200008392334,105.80899810791016 -0.5740000009536743,105.80899810791016 C-13.15999984741211,105.80899810791016 -23.363000869750977,93.30599975585938 -23.363000869750977,77.88099670410156z">
                        </path>
                      </g>
                      <g opacity="1" transform="matrix(1,0,0,1,0,0)">
                        <path fill="rgb(235,206,195)" fill-opacity="1"
                          d=" M18.785999298095703,72.552001953125 C18.56800079345703,69.79900360107422 19.844999313354492,67.4520034790039 21.636999130249023,67.31099700927734 C23.429000854492188,67.16899871826172 25.058000564575195,69.28600311279297 25.274999618530273,72.03900146484375 C25.493000030517578,74.79199981689453 24.216999053955078,77.13700103759766 22.424999237060547,77.27899932861328 C20.632999420166016,77.4209976196289 19.003999710083008,75.30500030517578 18.785999298095703,72.552001953125z">
                        </path>
                      </g>
                      <g opacity="1" transform="matrix(1,0,0,1,0,0)">
                        <path fill="rgb(235,206,195)" fill-opacity="1"
                          d=" M-19.93400001525879,72.552001953125 C-19.716999053955078,69.79900360107422 -20.992000579833984,67.4520034790039 -22.784000396728516,67.31099700927734 C-24.576000213623047,67.16899871826172 -26.204999923706055,69.28600311279297 -26.422000885009766,72.03900146484375 C-26.639999389648438,74.79199981689453 -25.36400032043457,77.13700103759766 -23.57200050354004,77.27899932861328 C-21.780000686645508,77.4209976196289 -20.152000427246094,75.30500030517578 -19.93400001525879,72.552001953125z">
                        </path>
                      </g>
                      <g opacity="1" transform="matrix(1,0,0,1,0,0)">
                        <path fill="rgb(52,49,143)" fill-opacity="1"
                          d=" M16.80500030517578,46.59299850463867 C16.80699920654297,46.59299850463867 16.809999465942383,46.59199905395508 16.812000274658203,46.59199905395508 C3.9830000400543213,34.2599983215332 4.489999771118164,40.3650016784668 6.468999862670898,42.13199996948242 C6.468999862670898,42.13199996948242 6.4679999351501465,42.132999420166016 6.4679999351501465,42.132999420166016 C-0.9480000138282776,39.733001708984375 -7.132999897003174,38.1150016784668 -8.305999755859375,38.534000396728516 C-8.897000312805176,38.744998931884766 -8.512999534606934,40.28200149536133 -7.9720001220703125,41.28799819946289 C-10.270000457763672,40.5620002746582 -12.866999626159668,39.58300018310547 -16.038000106811523,38.237998962402344 C-40.46799850463867,27.874000549316406 -39.861000061035156,50.92499923706055 -25.04199981689453,56.83700180053711 C-11.609000205993652,62.19599914550781 2.0190000534057617,62.89099884033203 19.97599983215332,59.44200134277344 C22.14299964904785,54.69499969482422 20.47800064086914,49.74300003051758 16.80500030517578,46.59299850463867z">
                        </path>
                      </g>
                    </g>
                  </g>
                </g>
                <g transform="matrix(1,0,0,1,363,347)" opacity="1" style="display: block;">
                  <g opacity="1" transform="matrix(1,0,0,1,0,0)">
                    <path fill="rgb(241,241,246)" fill-opacity="1"
                      d=" M287,231 C287,231 -258,231 -258,231 C-258,231 -258,218 -258,218 C-258,218 287,218 287,218 C287,218 287,231 287,231z">
                    </path>
                  </g>
                  <g opacity="1" transform="matrix(1,0,0,1,0,0)">
                    <path fill="rgb(255,255,255)" fill-opacity="1"
                      d=" M287,322 C287,322 -258,322 -258,322 C-258,322 -258,231 -258,231 C-258,231 287,231 287,231 C287,231 287,322 287,322z">
                    </path>
                  </g>
                </g>
                <g transform="matrix(1,0,0,1,363,347)" opacity="1" style="display: block;">
                  <g opacity="1" transform="matrix(1,0,0,1,0,0)">
                    <path fill="rgb(206,211,248)" fill-opacity="1"
                      d=" M69.56700134277344,206.47300720214844 C69.56700134277344,206.47300720214844 69.56700134277344,202 69.56700134277344,202 C69.56700134277344,202 -155.06700134277344,202 -155.06700134277344,202 C-155.06700134277344,202 -155.06700134277344,206.46499633789062 -155.06700134277344,206.46499633789062 C-155.06900024414062,206.56100463867188 -155.08299255371094,206.6529998779297 -155.08299255371094,206.75 C-155.08299255371094,212.96299743652344 -150.04600524902344,218 -143.83299255371094,218 C-143.83299255371094,218 58.33300018310547,218 58.33300018310547,218 C64.5469970703125,218 69.58300018310547,212.96299743652344 69.58300018310547,206.75 C69.58300018310547,206.656005859375 69.56999969482422,206.56700134277344 69.56700134277344,206.47300720214844z">
                    </path>
                  </g>
                  <g opacity="1" transform="matrix(1,0,0,1,0,0)">
                    <path fill="rgb(255,255,255)" fill-opacity="1"
                      d=" M44.5,208 C44.5,213.5 40,218 34.5,218 C34.5,218 -120,218 -120,218 C-125.5,218 -130,213.5 -130,208 C-130,208 -130,96 -130,96 C-130,90.5 -125.5,86 -120,86 C-120,86 34.5,86 34.5,86 C40,86 44.5,90.5 44.5,96 C44.5,96 44.5,208 44.5,208z">
                    </path>
                  </g>
                  <g opacity="1" transform="matrix(1,0,0,1,0,0)">
                    <path fill="rgb(233,237,247)" fill-opacity="1"
                      d=" M-54.59400177001953,152 C-54.59400177001953,145.45899963378906 -49.29199981689453,140.156005859375 -42.75,140.156005859375 C-36.20899963378906,140.156005859375 -30.9060001373291,145.45899963378906 -30.9060001373291,152 C-30.9060001373291,158.54100036621094 -36.20899963378906,163.843994140625 -42.75,163.843994140625 C-49.29199981689453,163.843994140625 -54.59400177001953,158.54100036621094 -54.59400177001953,152z">
                    </path>
                  </g>
                </g>
                <g transform="matrix(0.9999588131904602,0.009074961766600609,-0.009074961766600609,0.9999588131904602,363,347)"
                  opacity="1" style="display: block;">
                  <g opacity="1" transform="matrix(1,0,0,1,0,0)">
                    <path fill="rgb(159,156,255)" fill-opacity="1"
                      d=" M-174.94500732421875,-300.68798828125 C-174.94500732421875,-300.68798828125 -185.57899475097656,-304.91400146484375 -185.57899475097656,-304.91400146484375 C-186.41000366210938,-305.2449951171875 -187.35499572753906,-305.1080017089844 -188.0570068359375,-304.552001953125 C-188.0570068359375,-304.552001953125 -197.03500366210938,-297.4549865722656 -197.03500366210938,-297.4549865722656 C-197.73699951171875,-296.8999938964844 -198.08999633789062,-296.01300048828125 -197.9600067138672,-295.12799072265625 C-197.9600067138672,-295.12799072265625 -196.302001953125,-283.8039855957031 -196.302001953125,-283.8039855957031 C-196.1719970703125,-282.91900634765625 -195.58099365234375,-282.1700134277344 -194.74899291992188,-281.8399963378906 C-194.74899291992188,-281.8399963378906 -184.11500549316406,-277.614013671875 -184.11500549316406,-277.614013671875 C-183.28399658203125,-277.2829895019531 -182.33900451660156,-277.4219970703125 -181.63699340820312,-277.97601318359375 C-181.63699340820312,-277.97601318359375 -172.65899658203125,-285.072998046875 -172.65899658203125,-285.072998046875 C-171.95700073242188,-285.62799072265625 -171.60400390625,-286.5140075683594 -171.73399353027344,-287.3999938964844 C-171.73399353027344,-287.3999938964844 -173.39199829101562,-298.7250061035156 -173.39199829101562,-298.7250061035156 C-173.52200317382812,-299.6099853515625 -174.11399841308594,-300.3580017089844 -174.94500732421875,-300.68798828125z">
                    </path>
                  </g>
                  <g opacity="1" transform="matrix(1,0,0,1,0,0)">
                    <path fill="rgb(252,186,6)" fill-opacity="1"
                      d=" M-143.47300720214844,273.7590026855469 C-143.47300720214844,273.7590026855469 -147.13299560546875,291.1830139160156 -147.13299560546875,291.1830139160156 C-147.5290069580078,293.07000732421875 -145.73500061035156,294.677001953125 -143.90199279785156,294.07598876953125 C-143.90199279785156,294.07598876953125 -126.98400115966797,288.5360107421875 -126.98400115966797,288.5360107421875 C-125.1510009765625,287.9360046386719 -124.65399932861328,285.5769958496094 -126.09100341796875,284.2919921875 C-126.09100341796875,284.2919921875 -139.3509979248047,272.40899658203125 -139.3509979248047,272.40899658203125 C-140.78599548339844,271.12200927734375 -143.07699584960938,271.87200927734375 -143.47300720214844,273.7590026855469z">
                    </path>
                  </g>
                  <g opacity="1" transform="matrix(1,0,0,1,0,0)">
                    <path fill="rgb(128,125,251)" fill-opacity="1"
                      d=" M294.97698974609375,-144.4040069580078 C294.97698974609375,-144.4040069580078 279.489013671875,-135.62600708007812 279.489013671875,-135.62600708007812 C277.80999755859375,-134.677001953125 277.7919921875,-132.26600646972656 279.4549865722656,-131.28900146484375 C279.4549865722656,-131.28900146484375 294.8009948730469,-122.26499938964844 294.8009948730469,-122.26499938964844 C296.4630126953125,-121.28800201416016 298.55999755859375,-122.4749984741211 298.57501220703125,-124.40299987792969 C298.57501220703125,-124.40299987792969 298.7170104980469,-142.2050018310547 298.7170104980469,-142.2050018310547 C298.7330017089844,-144.13499450683594 296.6549987792969,-145.3560028076172 294.97698974609375,-144.4040069580078z">
                    </path>
                  </g>
                </g>
              </g>
            </svg>